<svg width="52" height="61" viewBox="0 0 52 61" fill="none" xmlns="http://www.w3.org/2000/svg">
<path d="M51.1889 29.8499L45.8542 21.7206C45.727 21.4667 45.6003 21.2125 45.6003 20.8315C44.5841 8.95506 34.8037 0.00012207 22.8637 0.00012207C10.2887 0.00012207 0 10.2253 0 22.8638C0 30.1672 3.36604 37.4711 9.08173 42.2979C9.20888 42.4251 9.46273 42.6789 9.46273 42.9965V55.0635C9.46273 56.9689 10.86 58.4928 12.7654 58.6838L30.8658 60.2716H31.1834C32.0725 60.2716 32.9617 59.9539 33.5969 59.3191C34.3589 58.6204 34.8037 57.6679 34.8037 56.6516L34.8033 48.9667H40.3923C43.314 48.9667 45.727 46.5532 45.727 43.6319V36.2009H47.6957C49.2201 36.2009 50.6174 35.3751 51.316 34.0417C52.078 32.7077 52.0147 31.12 51.1889 29.8499H51.1889ZM48.2039 32.3905C48.1406 32.5177 48.0134 32.7082 47.6958 32.7082H44.5837C43.2497 32.7082 42.1068 33.7878 42.1068 35.1851V43.6953C42.1068 44.6478 41.3448 45.4736 40.3285 45.4736H33.9775C32.4531 45.4736 31.1829 46.7437 31.1829 48.2682L31.1196 56.8423L12.9557 55.1911V43.1242C12.9557 41.8541 12.3842 40.584 11.3679 39.6949C6.54123 35.5669 3.55626 29.1521 3.55626 22.9282C3.55626 12.2587 12.1936 3.62107 22.8634 3.62107C32.8984 3.55639 41.1543 11.1141 42.0434 21.1487C42.1068 21.9745 42.3611 22.7999 42.8054 23.5623L48.204 31.7548C48.3312 32.0087 48.2678 32.263 48.204 32.3901L48.2039 32.3905Z" fill="white"/>
<path d="M25.5943 11.813C25.5943 10.4791 24.5147 9.46326 23.1808 9.46326C21.847 9.46326 20.7673 10.5429 20.7673 11.813C20.7673 12.7021 21.2755 13.5279 22.0374 13.9089V33.5335C21.2754 33.9145 20.7673 34.7403 20.7673 35.6293C20.7673 36.9633 21.847 38.0428 23.1808 38.0428C24.5147 38.0428 25.5943 36.9632 25.5943 35.6293C25.5943 34.7402 25.0862 33.9145 24.3242 33.5335V13.9724C25.0862 13.528 25.5943 12.7023 25.5943 11.8131V11.813Z" fill="white"/>
<path d="M16.1313 15.4965C16.8933 15.1155 17.4014 14.2897 17.4014 13.4007C17.4014 12.0667 16.3218 10.9872 15.0517 10.9872C13.7816 10.9872 12.6382 12.0668 12.6382 13.4007C12.6382 14.2898 13.1463 15.1156 13.9082 15.4965V19.815H17.3376V22.7367H12.3205C11.9395 21.9747 11.1137 21.4666 10.2247 21.4666C8.89072 21.4666 7.81116 22.5462 7.81116 23.8164C7.81116 25.1503 8.89077 26.2299 10.2247 26.2299C11.1138 26.2299 11.9395 25.7217 12.3205 24.9598H17.3376V27.8815H13.9082V32.1999C13.1463 32.5809 12.6382 33.4067 12.6382 34.2958C12.6382 35.6297 13.7178 36.7093 15.0517 36.7093C16.3856 36.7093 17.4014 35.6297 17.4014 34.2958C17.4014 33.4066 16.8933 32.5809 16.1313 32.1999V30.0407H19.5607V17.5927H16.1313V15.4965Z" fill="white"/>
<path d="M36.2006 21.403C35.3115 21.403 34.4857 21.9112 34.1048 22.6731L29.0877 22.6736V19.7519H32.517V15.4334C33.279 15.0524 33.7871 14.2266 33.7871 13.3376C33.7871 12.0036 32.7075 10.9241 31.3736 10.9241C30.0397 10.9241 29.0239 12.0037 29.0239 13.3376C29.0239 14.2267 29.532 15.0525 30.2939 15.4334V17.5926H26.8646V29.9136H30.3578V32.0729C29.5958 32.4538 29.0877 33.2797 29.0877 34.1687C29.0877 35.5026 30.1673 36.5185 31.4375 36.5185C32.7714 36.5185 33.851 35.4388 33.851 34.1687C33.851 33.2796 33.3428 32.4538 32.5809 32.0729V27.7544L29.0877 27.7539V24.8323H34.1048C34.4858 25.5942 35.3116 26.1023 36.2006 26.1023C37.5346 26.1023 38.6141 25.0227 38.6141 23.7526C38.6141 22.4191 37.5345 21.4028 36.2006 21.4028V21.403Z" fill="white"/>
</svg>
