<svg width="61" height="56" viewBox="0 0 61 56" fill="none" xmlns="http://www.w3.org/2000/svg">
<path fill-rule="evenodd" clip-rule="evenodd" d="M23.0739 40.9231C18.9128 40.9231 15.5349 44.3009 15.5349 48.462C15.5349 52.6222 18.9128 56 23.0739 56C27.234 56 30.6119 52.6222 30.6119 48.462C30.6119 44.3009 27.234 40.9231 23.0739 40.9231ZM46.7662 40.9231C42.6051 40.9231 39.2272 44.3009 39.2272 48.462C39.2272 52.6222 42.6051 56 46.7662 56C50.9263 56 54.3042 52.6222 54.3042 48.462C54.3042 44.3009 50.9263 40.9231 46.7652 40.9231H46.7662ZM23.0739 45.2308C24.857 45.2308 26.3042 46.6784 26.3042 48.462C26.3042 50.2452 24.8565 51.6923 23.0739 51.6923C21.2903 51.6923 19.8426 50.2447 19.8426 48.462C19.8426 46.6784 21.2903 45.2308 23.0739 45.2308ZM46.7662 45.2308C48.5493 45.2308 49.9965 46.6784 49.9965 48.462C49.9965 50.2452 48.5488 51.6923 46.7662 51.6923C44.9826 51.6923 43.5349 50.2447 43.5349 48.462C43.5349 46.6784 44.9826 45.2308 46.7662 45.2308ZM17.6893 40.9231H52.1508C53.3398 40.9231 54.3047 39.9582 54.3047 38.7692C54.3047 37.5803 53.3398 36.6154 52.1508 36.6154H17.6893C16.5003 36.6154 15.5354 37.5803 15.5354 38.7692C15.5354 39.9582 16.5003 40.9231 17.6893 40.9231ZM8.51622 0H2.61234C1.42339 0 0.458496 0.964898 0.458496 2.15385C0.458496 3.34279 1.42339 4.30769 2.61234 4.30769H8.51622C9.03882 4.30769 9.48593 4.68318 9.5768 5.1976L13.946 30.0111C14.3994 32.5852 16.6355 34.4621 19.2489 34.4621H51.6083C54.2108 34.4621 56.4406 32.601 56.9059 30.0404L60.0391 12.8097C60.3247 11.239 59.8987 9.62222 58.8751 8.39674C57.8525 7.17078 56.3382 6.46209 54.741 6.46209H19.8438C18.6548 6.46209 17.6899 7.42699 17.6899 8.61594C17.6899 9.80489 18.6548 10.7698 19.8438 10.7698H54.741C55.0607 10.7698 55.3636 10.9116 55.5679 11.1563C55.7718 11.401 55.8573 11.7227 55.8011 12.0366L52.6679 29.2698C52.5746 29.7814 52.1295 30.1535 51.6097 30.154H19.2491C18.777 30.154 18.3669 29.8477 18.2251 29.4097L14.1751 6.46204C14.1737 6.45147 14.1708 6.44089 14.1674 6.42887L13.8193 4.45152C13.366 1.87749 11.1299 0.000562462 8.51645 0.000562462L8.51622 0Z" fill="white"/>
</svg>
