<svg width="69" height="45" viewBox="0 0 69 45" fill="none" xmlns="http://www.w3.org/2000/svg">
<path d="M20.3157 20.4172C25.6686 20.4172 30.0243 16.0614 30.0243 10.7086C30.0243 5.35582 25.6685 1 20.3157 1C14.9629 1 10.6071 5.35582 10.6071 10.7086C10.6076 16.0615 14.9629 20.4172 20.3157 20.4172ZM27.883 10.7086C27.883 14.8817 24.4888 18.276 20.3157 18.276C16.1431 18.276 12.7488 14.8817 12.7488 10.7086C12.7488 6.53551 16.1431 3.14125 20.3162 3.14125C24.4888 3.14125 27.883 6.53657 27.883 10.7086V10.7086Z" fill="white" stroke="white"/>
<path d="M48.272 1.0011C42.919 1.0011 38.5634 5.35692 38.5634 10.7097C38.5634 16.0626 42.9192 20.4183 48.272 20.4183C53.6258 20.4183 57.9806 16.0625 57.9806 10.7097C57.9801 5.35626 53.6253 1.0011 48.272 1.0011V1.0011ZM40.7046 10.7088C40.7046 6.53568 44.0989 3.14142 48.272 3.14142C52.4445 3.14142 55.8388 6.53674 55.8388 10.7088C55.8388 14.8808 52.4445 18.2761 48.2714 18.2761C44.0989 18.2761 40.7046 14.8819 40.7046 10.7088V10.7088Z" fill="white" stroke="white"/>
<path d="M3.14151 43.5169C3.59206 33.6865 11.7292 25.8262 21.6685 25.8262H26.288C26.7401 28.0097 28.069 29.8708 29.8847 31.0392C24.1024 32.3686 19.7384 37.4118 19.4313 43.5162H21.5726C21.9297 37.5771 26.8857 32.8265 32.9096 32.8265H35.6759C41.7007 32.8265 46.6556 37.5782 47.0128 43.5162H49.1541C48.847 37.4114 44.4825 32.3682 38.7007 31.0392C40.5163 29.8708 41.8453 28.0087 42.2974 25.8262H46.9169C56.8567 25.8262 64.9934 33.6857 65.4439 43.5169H67.5873C67.1347 32.5045 58.0391 23.6846 46.9186 23.6846H42.4447C42.1939 19.401 38.6396 15.9902 34.2936 15.9902C29.9477 15.9902 26.3933 19.401 26.1426 23.6856H21.6686C10.548 23.6856 1.45185 32.5056 1 43.5166L3.14151 43.5169ZM28.2599 24.1655C28.2599 20.8382 30.9673 18.1313 34.294 18.1313C37.6213 18.1313 40.3282 20.8387 40.3282 24.1655C40.3282 27.4927 37.6213 30.2001 34.294 30.2001C30.9668 30.2001 28.2599 27.4927 28.2599 24.1655V24.1655Z" fill="white" stroke="white"/>
</svg>
