<svg width="66" height="65" viewBox="0 0 66 65" fill="none" xmlns="http://www.w3.org/2000/svg">
<path d="M32.9252 49.3396C42.4212 49.3396 50.1192 41.6415 50.1192 32.1455C50.1192 22.6495 42.4212 14.9514 32.9252 14.9514C23.4291 14.9514 15.7311 22.6495 15.7311 32.1455C15.7311 41.6415 23.4291 49.3396 32.9252 49.3396Z" fill="white"/>
<path fill-rule="evenodd" clip-rule="evenodd" d="M53.0014 5.98051H47.1289C47.1289 5.18744 46.8139 4.42685 46.2531 3.86607C45.6923 3.30528 44.9317 2.99023 44.1386 2.99023H38.1581C37.365 2.99023 36.6044 3.30528 36.0436 3.86607C35.4828 4.42685 35.1678 5.18744 35.1678 5.98051H30.6824C30.6824 5.18744 30.3673 4.42685 29.8065 3.86607C29.2458 3.30528 28.4852 2.99023 27.6921 2.99023H21.7116C20.9185 2.99023 20.1579 3.30528 19.5971 3.86607C19.0363 4.42685 18.7213 5.18744 18.7213 5.98051H12.8488V8.97078H18.7213C18.7213 9.76385 19.0363 10.5244 19.5971 11.0852C20.1579 11.646 20.9185 11.9611 21.7116 11.9611H27.6921C28.4852 11.9611 29.2458 11.646 29.8065 11.0852C30.3673 10.5244 30.6824 9.76385 30.6824 8.97078H35.1678C35.1678 9.76385 35.4828 10.5244 36.0436 11.0852C36.6044 11.646 37.365 11.9611 38.1581 11.9611H44.1386C44.9317 11.9611 45.6923 11.646 46.2531 11.0852C46.8139 10.5244 47.1289 9.76385 47.1289 8.97078H53.0014V5.98051ZM56.8473 13.9966V17.9416C56.0542 17.9416 55.2936 18.2567 54.7328 18.8174C54.1721 19.3782 53.857 20.1388 53.857 20.9319V26.9124C53.857 27.7055 54.1721 28.4661 54.7328 29.0269C55.2936 29.5877 56.0542 29.9027 56.8473 29.9027V34.3881C56.0542 34.3881 55.2936 34.7032 54.7328 35.264C54.1721 35.8247 53.857 36.5853 53.857 37.3784V43.3589C53.857 44.152 54.1721 44.9126 54.7328 45.4734C55.2936 46.0342 56.0542 46.3492 56.8473 46.3492V51.7399H59.8376V46.3492C60.6306 46.3492 61.3912 46.0342 61.952 45.4734C62.5128 44.9126 62.8278 44.152 62.8278 43.3589V37.3784C62.8278 36.5853 62.5128 35.8247 61.952 35.264C61.3912 34.7032 60.6306 34.3881 59.8376 34.3881V29.9027C60.6306 29.9027 61.3912 29.5877 61.952 29.0269C62.5128 28.4661 62.8278 27.7055 62.8278 26.9124V20.9319C62.8278 20.1388 62.5128 19.3782 61.952 18.8174C61.3912 18.2567 60.6306 17.9416 59.8376 17.9416V13.9966H56.8473ZM6.01261 17.9416V13.9966H9.00289V17.9416C9.79596 17.9416 10.5565 18.2567 11.1173 18.8174C11.6781 19.3782 11.9932 20.1388 11.9932 20.9319V26.9124C11.9932 27.7055 11.6781 28.4661 11.1173 29.0269C10.5565 29.5877 9.79596 29.9027 9.00289 29.9027V34.3881C9.79596 34.3881 10.5565 34.7032 11.1173 35.264C11.6781 35.8247 11.9932 36.5853 11.9932 37.3784V43.3589C11.9932 44.152 11.6781 44.9126 11.1173 45.4734C10.5565 46.0342 9.79596 46.3492 9.00289 46.3492V51.7399H6.01261V46.3492C5.21954 46.3492 4.45896 46.0342 3.89817 45.4734C3.33739 44.9126 3.02234 44.152 3.02234 43.3589V37.3784C3.02234 36.5853 3.33739 35.8247 3.89817 35.264C4.45896 34.7032 5.21954 34.3881 6.01261 34.3881V29.9027C5.21954 29.9027 4.45896 29.5877 3.89817 29.0269C3.33739 28.4661 3.02234 27.7055 3.02234 26.9124V20.9319C3.02234 20.1388 3.33739 19.3782 3.89817 18.8174C4.45896 18.2567 5.21954 17.9416 6.01261 17.9416ZM53.0014 58.3103V55.32H47.1289C47.1289 54.527 46.8139 53.7664 46.2531 53.2056C45.6923 52.6448 44.9317 52.3298 44.1386 52.3298H38.1581C37.365 52.3298 36.6044 52.6448 36.0436 53.2056C35.4828 53.7664 35.1678 54.527 35.1678 55.32H30.6824C30.6824 54.527 30.3673 53.7664 29.8065 53.2056C29.2458 52.6448 28.4852 52.3298 27.6921 52.3298H21.7116C20.9185 52.3298 20.1579 52.6448 19.5971 53.2056C19.0363 53.7664 18.7213 54.527 18.7213 55.32H12.8488V58.3103H18.7213C18.7213 59.1034 19.0363 59.864 19.5971 60.4248C20.1579 60.9856 20.9185 61.3006 21.7116 61.3006H27.6921C28.4852 61.3006 29.2458 60.9856 29.8065 60.4248C30.3673 59.864 30.6824 59.1034 30.6824 58.3103H35.1678C35.1678 59.1034 35.4828 59.864 36.0436 60.4248C36.6044 60.9856 37.365 61.3006 38.1581 61.3006H44.1386C44.9317 61.3006 45.6923 60.9856 46.2531 60.4248C46.8139 59.864 47.1289 59.1034 47.1289 58.3103H53.0014ZM59.8376 26.9124H56.8473V20.9319H59.8376V26.9124ZM38.1581 5.98051H44.1386V8.97078H38.1581V5.98051ZM21.7116 5.98051H27.6921V8.97078H21.7116V5.98051ZM6.01261 20.9319H9.00289V26.9124H6.01261V20.9319ZM6.01261 37.3784H9.00289V43.3589H6.01261V37.3784ZM27.6921 58.3103H21.7116V55.32H27.6921V58.3103ZM44.1386 58.3103H38.1581V55.32H44.1386V58.3103ZM59.8376 43.3589H56.8473V37.3784H59.8376V43.3589Z" fill="white"/>
<path fill-rule="evenodd" clip-rule="evenodd" d="M53.857 0H62.8278C64.4793 0 65.8181 1.33879 65.8181 2.99027V11.9611C65.8181 13.6126 64.4793 14.9514 62.8278 14.9514H53.857C52.2055 14.9514 50.8667 13.6126 50.8667 11.9611V2.99027C50.8667 1.33879 52.2055 0 53.857 0ZM55.352 2.99024H61.3326C62.1583 2.99024 62.8277 3.65964 62.8277 4.48538V10.4659C62.8277 11.2917 62.1583 11.9611 61.3326 11.9611H55.352C54.5263 11.9611 53.8569 11.2917 53.8569 10.4659V4.48538C53.8569 3.65964 54.5263 2.99024 55.352 2.99024Z" fill="white"/>
<path fill-rule="evenodd" clip-rule="evenodd" d="M53.857 49.3396H62.8278C64.4793 49.3396 65.8181 50.6784 65.8181 52.3299V61.3007C65.8181 62.9522 64.4793 64.291 62.8278 64.291H53.857C52.2055 64.291 50.8667 62.9522 50.8667 61.3007V52.3299C50.8667 50.6784 52.2055 49.3396 53.857 49.3396ZM55.352 52.3298H61.3326C62.1583 52.3298 62.8277 52.9992 62.8277 53.8249V59.8055C62.8277 60.6312 62.1583 61.3006 61.3326 61.3006H55.352C54.5263 61.3006 53.8569 60.6312 53.8569 59.8055V53.8249C53.8569 52.9992 54.5263 52.3298 55.352 52.3298Z" fill="white"/>
<path fill-rule="evenodd" clip-rule="evenodd" d="M2.99027 0H11.9611C13.6126 0 14.9514 1.33879 14.9514 2.99027V11.9611C14.9514 13.6126 13.6126 14.9514 11.9611 14.9514H2.99027C1.33879 14.9514 0 13.6126 0 11.9611V2.99027C0 1.33879 1.33879 0 2.99027 0ZM4.48534 2.99024H10.4659C11.2916 2.99024 11.961 3.65964 11.961 4.48538V10.4659C11.961 11.2917 11.2916 11.9611 10.4659 11.9611H4.48534C3.65959 11.9611 2.9902 11.2917 2.9902 10.4659V4.48538C2.9902 3.65964 3.65959 2.99024 4.48534 2.99024Z" fill="white"/>
<path fill-rule="evenodd" clip-rule="evenodd" d="M2.99027 49.3396H11.9611C13.6126 49.3396 14.9514 50.6784 14.9514 52.3299V61.3007C14.9514 62.9522 13.6126 64.291 11.9611 64.291H2.99027C1.33879 64.291 0 62.9522 0 61.3007V52.3299C0 50.6784 1.33879 49.3396 2.99027 49.3396ZM4.48534 52.3298H10.4659C11.2916 52.3298 11.961 52.9992 11.961 53.8249V59.8055C11.961 60.6312 11.2916 61.3006 10.4659 61.3006H4.48534C3.65959 61.3006 2.9902 60.6312 2.9902 59.8055V53.8249C2.9902 52.9992 3.65959 52.3298 4.48534 52.3298Z" fill="white"/>
<path d="M34.0118 30.9549H31.7603C30.9189 30.9549 30.209 30.2432 30.209 29.4018C30.209 28.5604 30.9189 27.8505 31.7603 27.8505H34.0118C34.6623 27.8505 35.2348 28.276 35.46 28.8561H37.7877C37.5454 27.1884 36.2098 25.8396 34.4946 25.6221C34.2217 25.5877 34.0175 25.355 34.0175 25.0802V24.1147H31.7545V25.0802C31.7545 25.3549 31.5503 25.5878 31.2775 25.6221C29.3771 25.8625 27.9462 27.4881 27.9462 29.402C27.9462 31.5066 29.6577 33.2182 31.7603 33.2182H34.0118C34.8532 33.2182 35.563 33.9299 35.563 34.7713C35.563 35.6127 34.8532 36.3226 34.0118 36.3226H31.7603C31.1097 36.3226 30.5372 35.8989 30.312 35.317H27.9843C28.2266 36.9865 29.5622 38.3335 31.2775 38.551C31.5503 38.5854 31.7545 38.8181 31.7545 39.0929V40.0584H34.0175V39.0929C34.0175 38.8182 34.2217 38.5854 34.4945 38.551C36.3949 38.3105 37.8259 36.6849 37.8259 34.7711C37.8257 32.6667 36.1143 30.9552 34.0118 30.9552V30.9549Z" fill="white"/>
</svg>
