<svg width="52" height="64" viewBox="0 0 52 64" fill="none" xmlns="http://www.w3.org/2000/svg">
<path d="M18.1968 26.1897C18.1968 28.8088 19.506 31.1661 21.6015 32.4753L19.1571 45.2208H32.3392L29.8948 32.3877C31.9902 30.9907 33.2996 28.7211 33.2996 26.1021C33.2996 21.9989 29.8948 18.5942 25.7917 18.5942C21.5143 18.5942 18.1968 21.9989 18.1968 26.1898V26.1897ZM29.7207 26.1897C29.7207 27.8485 28.7604 29.3325 27.1893 29.9433L25.8801 30.467L28.0626 41.8161H23.3487L25.5312 30.467L24.2219 29.9433C22.6508 29.3319 21.6905 27.8479 21.6905 26.1897C21.6905 24.0072 23.5241 22.1735 25.7067 22.1735C27.8873 22.0865 29.7209 23.9194 29.7209 26.1897H29.7207Z" fill="white"/>
<path d="M51.2836 11.3485H49.6247C37.3152 11.3485 27.014 1.30933 26.9267 1.22156L25.7051 0L24.4829 1.22217C24.3959 1.30925 14.0941 11.3491 1.78489 11.3491H0.126029L0.0389482 13.008C0.0389482 13.3569 -0.484758 22.2617 2.3086 32.9124C5.97521 47.1425 13.8325 57.7057 24.9193 63.3802L25.7049 63.8168L26.4905 63.3802C37.5777 57.706 45.4346 47.2297 49.1012 32.9124C51.8951 22.2618 51.3709 13.3572 51.3709 13.008L51.2836 11.3485ZM25.7046 59.8001C4.83988 48.5387 3.53038 21.65 3.53038 14.8405C14.094 14.1421 22.6491 7.59463 25.7046 4.88833C28.8474 7.59447 37.4027 14.2298 47.8789 14.8405C47.8789 21.65 46.5696 48.5384 25.7046 59.8001Z" fill="white"/>
</svg>
