<svg width="68" height="67" viewBox="0 0 68 67" fill="none" xmlns="http://www.w3.org/2000/svg">
<path d="M23.6545 51.2529C18.0606 51.2529 13.4971 46.6992 13.4971 41.0955C13.4971 35.5015 18.0508 30.938 23.6545 30.938C29.2485 30.938 33.812 35.4917 33.812 41.0955C33.812 46.6992 29.2583 51.2529 23.6545 51.2529ZM23.6545 33.5779C19.513 33.5779 16.137 36.954 16.137 41.0955C16.137 45.2369 19.513 48.613 23.6545 48.613C27.796 48.613 31.172 45.2369 31.172 41.0955C31.172 36.954 27.8058 33.5779 23.6545 33.5779Z" fill="white"/>
<path d="M37.1593 61.6009C36.433 61.6009 35.8442 61.0121 35.8442 60.2858C35.8442 55.5162 33.0178 51.1588 28.6505 49.1764C27.9832 48.8722 27.6986 48.0969 27.993 47.4295C28.2874 46.7622 29.0725 46.4776 29.7399 46.772C35.0493 49.1764 38.4743 54.4858 38.4743 60.276C38.4841 61.0121 37.8953 61.6009 37.1593 61.6009ZM10.161 61.6009C9.43479 61.6009 8.84595 61.0121 8.84595 60.2858C8.84595 54.4858 12.271 49.1862 17.5804 46.7818C18.2477 46.4776 19.023 46.772 19.3273 47.4393C19.6315 48.1067 19.3371 48.882 18.6697 49.1862C14.3025 51.1686 11.4761 55.526 11.4761 60.2956C11.4761 61.0121 10.8873 61.6009 10.161 61.6009Z" fill="white"/>
<path d="M44.261 53.8481L44.4769 53.7205C43.4072 55.7127 42.0332 57.5578 40.3943 59.2065C35.929 63.6817 29.9817 66.145 23.6615 66.145C17.3413 66.145 11.4038 63.6817 6.92867 59.2163C2.46331 54.7412 0 48.8037 0 42.4835C0 36.1633 2.46331 30.216 6.92867 25.7507C11.394 21.2853 17.3413 18.822 23.6615 18.822C24.849 18.822 26.0365 18.9103 27.2141 19.087C27.9306 19.195 28.4311 19.8721 28.3231 20.5885C28.2152 21.305 27.5478 21.8055 26.8216 21.6975C25.7813 21.5405 24.7214 21.462 23.6615 21.462C18.0479 21.462 12.768 23.6505 8.79332 27.6153C0.598652 35.81 0.598652 49.1472 8.79332 57.3517C12.768 61.3263 18.0381 63.5149 23.6615 63.5149C29.2751 63.5149 34.5648 61.3263 38.5297 57.3517C40.198 55.6833 41.5425 53.7794 42.5436 51.7283L42.9165 52.2877L44.261 53.8481Z" fill="white"/>
<path d="M47.3132 42.1597C46.4299 42.2284 45.4191 42.297 44.683 42.3657C44.6732 40.4716 44.4083 38.5579 43.8685 36.6835C43.6722 35.9867 44.0746 35.2506 44.7714 35.0543C45.4682 34.8581 46.2042 35.2604 46.4005 35.9572C46.9893 37.9985 47.2936 40.0889 47.3132 42.1597Z" fill="white"/>
<path d="M63.996 55.637H44.79C43.1216 55.637 41.7771 54.2826 41.7771 52.6143V51.7016L38.0478 49.2284C37.6749 48.9831 37.459 48.5709 37.459 48.1293C37.459 47.6876 37.6847 47.2755 38.0478 47.0301L41.7771 44.557V43.6443C41.7771 41.9759 43.1315 40.6216 44.79 40.6216H63.996C65.6643 40.6216 67.0187 41.9759 67.0187 43.6443V52.6241C67.0187 54.2826 65.6643 55.637 63.996 55.637ZM41.1589 48.1293L43.8184 49.8958C44.1914 50.1411 44.4073 50.5533 44.4073 50.995V52.6241C44.4073 52.8302 44.5839 53.0068 44.79 53.0068H63.996C64.2021 53.0068 64.3787 52.8302 64.3787 52.6241V43.6443C64.3787 43.4382 64.2021 43.2615 63.996 43.2615H44.79C44.5839 43.2615 44.4073 43.4382 44.4073 43.6443V45.2734C44.4073 45.715 44.1816 46.1272 43.8184 46.3726L41.1589 48.1293Z" fill="white"/>
<path d="M48.5344 49.4461C47.8081 49.4461 47.2193 48.8573 47.2193 48.131C47.2193 47.4048 47.8081 46.8062 48.5344 46.8062C49.2606 46.8062 49.8494 47.395 49.8494 48.1212V48.131C49.8494 48.8573 49.2606 49.4461 48.5344 49.4461Z" fill="white"/>
<path d="M54.4213 49.4461C53.6951 49.4461 53.1063 48.8573 53.1063 48.131C53.1063 47.4048 53.6951 46.8062 54.4213 46.8062C55.1476 46.8062 55.7364 47.395 55.7364 48.1212V48.131C55.7364 48.8573 55.1476 49.4461 54.4213 49.4461Z" fill="white"/>
<path d="M60.311 49.4461C59.5847 49.4461 58.9959 48.8573 58.9959 48.131C58.9959 47.4048 59.5847 46.8062 60.311 46.8062C61.0372 46.8062 61.6261 47.395 61.6261 48.1212V48.131C61.6261 48.8573 61.0372 49.4461 60.311 49.4461Z" fill="white"/>
<path d="M49.2364 26.6307H44.6238C42.8377 26.6307 40.4823 25.9928 39.4224 24.766C38.9415 24.2164 39.0102 23.3822 39.5598 22.9112C40.1094 22.4303 40.9436 22.499 41.4146 23.0486C41.7483 23.4411 43.1714 24.0005 44.6238 24.0005H49.2364C51.1501 24.0005 52.7105 22.4499 52.7105 20.5362V17.1798C52.7105 16.2082 51.9254 15.4231 50.9538 15.4231H48.4218C47.6956 15.4231 47.1068 14.8343 47.1068 14.108V9.98617C47.1068 9.62305 46.8123 9.31882 46.4394 9.31882C46.3511 9.31882 46.1254 9.31882 45.6837 10.4572L44.5453 13.4407C43.505 16.169 41.552 16.169 40.502 16.169H40.4234C39.6972 16.169 39.1084 15.5801 39.1084 14.8539C39.1084 14.1277 39.6972 13.5388 40.4234 13.5388H40.502C41.3852 13.5388 41.6894 13.5388 42.082 12.5084L43.2204 9.52491C43.5148 8.74961 44.3098 6.69849 46.4394 6.69849C48.255 6.69849 49.7369 8.1804 49.7369 9.99598V12.8028H50.944C53.3681 12.8028 55.3407 14.7754 55.3407 17.1994V20.546C55.3407 23.8926 52.6026 26.6307 49.2364 26.6307Z" fill="white"/>
<path d="M39.3336 26.9844H35.673C34.3481 26.9844 33.2686 25.9049 33.2686 24.58V14.1674C33.2686 12.8425 34.3481 11.7629 35.673 11.7629H39.3336C40.6585 11.7629 41.738 12.8425 41.738 14.1674V24.58C41.738 25.9049 40.6585 26.9844 39.3336 26.9844ZM35.8987 24.3445H39.0981V14.3931H35.8987V24.3445Z" fill="white"/>
<path d="M32.2832 37.0511C30.87 37.0511 29.4175 36.8548 27.9258 36.4721C27.5234 36.3641 27.1995 36.0795 27.0425 35.6968C26.8855 35.314 26.9149 34.8822 27.121 34.5191C28.5735 32.0558 29.0151 30.407 28.8581 27.9143C27.6902 26.0202 26.8855 23.9298 26.4733 21.7119C25.7471 17.8255 26.277 13.8999 28.0043 10.3571C28.3183 9.69956 29.1133 9.42477 29.7708 9.74863C30.4283 10.0627 30.7031 10.8576 30.3793 11.5151C28.9072 14.5477 28.4557 17.9139 29.074 21.2408C29.4469 23.233 30.183 25.1075 31.2723 26.8151C31.3901 26.9918 31.4588 27.1979 31.4784 27.4138C31.6943 30.0341 31.3705 31.9969 30.2811 34.2836C32.9898 34.6859 35.5316 34.2836 37.8673 33.1059C38.201 32.9391 38.5838 32.9194 38.9371 33.047C41.6261 34.0775 44.5605 34.3425 47.4065 33.8125C55.9152 32.2226 61.5485 24.0083 59.9684 15.4898C59.2029 11.3679 56.877 7.78584 53.4127 5.41086C49.9287 3.02606 45.7578 2.1428 41.6359 2.90829C40.3699 3.14383 39.1333 3.53639 37.9851 4.05653C37.3276 4.36076 36.5424 4.06634 36.2382 3.4088C35.934 2.75127 36.2284 1.96615 36.8859 1.66192C38.2305 1.04364 39.6731 0.592194 41.1452 0.317403C45.9639 -0.585483 50.8414 0.454799 54.875 3.22234C58.9183 5.98988 61.6368 10.1706 62.5299 14.9893C64.3847 24.9308 57.7995 34.5289 47.858 36.3838C44.7273 36.9628 41.5083 36.7272 38.5151 35.687C36.5424 36.5997 34.4619 37.0511 32.2832 37.0511Z" fill="white"/>
<path d="M32.6203 7.4717C32.2866 7.4717 31.9431 7.34412 31.6879 7.08895C31.1776 6.57863 31.1678 5.74444 31.6879 5.2243C32.1983 4.71397 33.0423 4.71397 33.5526 5.2243C34.0629 5.73462 34.0629 6.57863 33.5526 7.08895C33.2974 7.34412 32.9638 7.4717 32.6203 7.4717Z" fill="white"/>
</svg>
