<svg width="372" height="120" viewBox="0 0 372 120" fill="none" xmlns="http://www.w3.org/2000/svg">
<g clip-path="url(#clip0_241_8284)">
<g clip-path="url(#clip1_241_8284)">
<path d="M71.6394 31.3466L68.9253 31.1588L68.9459 31.1227C69.0734 30.899 69.2771 30.7285 69.5199 30.6426C69.7627 30.5566 70.0283 30.5608 70.2682 30.6545C70.2682 30.6545 70.8007 30.9015 71.6394 31.3466Z" fill="#B477FF"/>
<path d="M104.546 59.6917C104.546 59.3161 104.546 58.9431 104.523 58.5675C104.524 58.5503 104.524 58.5331 104.523 58.516C104.459 56.5143 104.279 54.5179 103.982 52.5372C103.874 51.7912 103.748 51.0528 103.604 50.3171C103.548 50.0135 103.486 49.7125 103.419 49.4089C103.247 48.6234 103.065 47.8465 102.871 47.0781L101.934 47.2762L100.1 47.6621L94.5202 48.8327L94.4919 48.8635L90.4915 53.1881L87.9857 53.7361L88.0166 53.3168L88.2559 50.1576L83.9647 53.1804L80.9831 55.2797L80.0055 55.4932L81.194 51.7114L80.9728 51.7526L65.1923 54.7471C63.0107 55.2051 58.7196 56.7744 56.8236 57.9475L39.3786 66.8745C38.0046 67.4635 36.5594 67.8701 35.0797 68.0836L17.7608 70.5842L16.9633 70.7L30.5468 58.0041C30.589 57.965 30.6432 57.9412 30.7006 57.9366C30.7579 57.9319 30.8152 57.9466 30.8632 57.9783L37.9559 62.0174L33.6005 55.0507C33.5763 55.007 33.5654 54.9572 33.5691 54.9074C33.5727 54.8576 33.5908 54.81 33.6211 54.7703L37.7373 48.8532C37.7702 48.8112 37.8153 48.7805 37.8665 48.7653C37.9177 48.75 37.9723 48.7511 38.0228 48.7683L46.0263 52.5372L40.9685 44.9351C40.9429 44.8911 40.9309 44.8405 40.9341 44.7896C40.9373 44.7388 40.9556 44.6901 40.9865 44.6496L44.7168 39.8208C44.7484 39.7784 44.7922 39.7468 44.8424 39.7302C44.8926 39.7136 44.9466 39.7129 44.9972 39.7282L53.9834 43.7955L48.4317 35.2158C48.4018 35.1727 48.3858 35.1215 48.3858 35.0691C48.3858 35.0167 48.4018 34.9656 48.4317 34.9225L52.7279 30.6417C52.7504 30.6128 52.7788 30.589 52.8111 30.5719C52.8435 30.5549 52.8791 30.5449 52.9157 30.5427C52.9522 30.5405 52.9887 30.5462 53.0229 30.5592C53.0571 30.5723 53.0881 30.5925 53.1138 30.6185L59.8181 37.225L57.8526 28.4601C57.8486 28.4192 57.8544 28.378 57.8696 28.3398C57.8847 28.3017 57.9088 28.2677 57.9398 28.2408C57.9708 28.2138 58.0077 28.1947 58.0476 28.1849C58.0875 28.1752 58.1291 28.1752 58.169 28.1848L64.189 29.3528L69.077 25.2366C69.1144 25.2054 69.1598 25.1854 69.2081 25.1791C69.2564 25.1727 69.3055 25.1801 69.3497 25.2006L81.1194 30.796C81.1628 30.819 81.2125 30.8272 81.2609 30.8192L93.9517 29.1598L94.2346 29.1238L94.2063 29.0826C89.3468 22.5408 83.0229 17.2277 75.7411 13.5689C68.4593 9.91014 60.4219 8.00733 52.2726 8.01286C23.4 8.01286 -0.00310422 31.4237 -0.00310422 60.2886C-0.0183447 69.6069 2.46942 78.7584 7.20023 86.7866V86.7866C7.24654 86.8715 7.29799 86.9564 7.34687 87.0438C7.75506 87.7299 8.18383 88.4056 8.63318 89.0711V89.0865C9.36038 90.1893 10.1322 91.2621 10.9485 92.3049L11.0257 92.4052C13.7843 95.9412 16.9831 99.1106 20.5444 101.836C29.6536 108.802 40.8077 112.566 52.2752 112.544C53.1782 112.544 54.076 112.521 54.9661 112.477H55.0716C58.7569 112.285 62.4115 111.704 65.9744 110.743C66.1853 110.686 66.3937 110.627 66.6047 110.565C67.5565 110.308 68.4956 109.999 69.4346 109.678C80.0431 105.982 89.1829 98.9742 95.5055 89.6885L95.5981 89.5547C95.6393 89.4904 95.6856 89.4287 95.7268 89.3618C96.4625 88.2607 97.1623 87.1339 97.8157 85.9762L98.0473 85.5646C99.0002 83.8453 99.8548 82.0733 100.607 80.2573C100.823 79.7427 101.029 79.2128 101.23 78.6828C101.229 78.6743 101.229 78.6656 101.23 78.6571C103.43 72.7834 104.555 66.5611 104.548 60.2886C104.551 60.0802 104.551 59.8872 104.546 59.6917ZM74.6801 33.1139C73.5199 32.373 72.4394 31.771 71.6393 31.3466C70.8392 30.9221 70.2681 30.6545 70.2681 30.6545C70.0282 30.5608 69.7626 30.5566 69.5198 30.6426C69.277 30.7285 69.0733 30.899 68.9458 31.1227L68.9252 31.1588L67.4202 33.7931L67.0677 34.4131C67.0081 34.5153 66.9759 34.6312 66.9744 34.7495C66.9728 34.8678 67.002 34.9844 67.059 35.0881C67.116 35.1917 67.1989 35.2789 67.2997 35.3409C67.4004 35.403 67.5155 35.4379 67.6337 35.4422L68.8274 35.4885L71.8348 35.6042L76.2083 35.7766L78.1326 35.8512C78.2306 35.8532 78.3263 35.8218 78.4041 35.7622C78.4819 35.7027 78.5372 35.6184 78.5608 35.5233C78.5845 35.4282 78.5751 35.3279 78.5342 35.2388C78.4933 35.1497 78.4234 35.0772 78.3358 35.0331C77.4534 34.5932 76.8103 34.4723 74.6801 33.1139Z" fill="#FFECA9"/>
<path d="M16.9583 70.7025L16.9531 70.7L16.9608 70.7025H16.9583Z" fill="#B477FF"/>
<path d="M65.1872 66.1824L64.7087 70.2935L64.2045 74.6284L64.2019 74.6258L64.7061 70.2935L65.1846 66.1773L65.1872 66.1824Z" fill="#B477FF"/>
<path d="M94.245 29.1109L93.962 29.147L81.2712 30.8063C81.2228 30.8143 81.1731 30.8062 81.1297 30.7832L69.36 25.1877C69.3158 25.1673 69.2667 25.1598 69.2184 25.1662C69.1702 25.1726 69.1247 25.1925 69.0873 25.2237L64.1993 29.3399L57.1529 27.166C57.113 27.1564 57.0714 27.1564 57.0315 27.1662C56.9916 27.1759 56.9546 27.1951 56.9236 27.222C56.8927 27.249 56.8686 27.2829 56.8534 27.3211C56.8383 27.3592 56.8324 27.4005 56.8365 27.4413L59.8284 37.2173L53.1242 30.6108C53.0984 30.5848 53.0674 30.5646 53.0333 30.5515C52.9991 30.5385 52.9625 30.5328 52.926 30.535C52.8895 30.5372 52.8538 30.5472 52.8215 30.5642C52.7891 30.5813 52.7607 30.605 52.7383 30.6339L48.442 34.9148C48.4121 34.9578 48.3961 35.009 48.3961 35.0614C48.3961 35.1138 48.4121 35.165 48.442 35.2081L53.9937 43.7878L45.0075 39.7204C44.957 39.7052 44.9029 39.7059 44.8527 39.7225C44.8026 39.7391 44.7587 39.7707 44.7271 39.813L40.9968 44.6419C40.9659 44.6823 40.9477 44.7311 40.9445 44.7819C40.9412 44.8328 40.9532 44.8834 40.9788 44.9274L46.0366 52.5295L38.0332 48.7606C37.9826 48.7434 37.928 48.7423 37.8768 48.7575C37.8257 48.7728 37.7805 48.8035 37.7476 48.8455L33.6314 54.7626C33.6011 54.8023 33.5831 54.8499 33.5794 54.8997C33.5758 54.9495 33.5867 54.9993 33.6108 55.043L37.9663 62.0096L30.8736 57.9706C30.8255 57.9389 30.7683 57.9242 30.7109 57.9289C30.6535 57.9335 30.5994 57.9573 30.5571 57.9963L16.9634 70.7L17.7609 70.5842L35.0798 68.0836C36.5594 67.8701 38.0047 67.4635 39.3786 66.8745L56.8262 57.932C58.7222 56.7589 63.0133 55.1896 65.1949 54.7317L80.9754 51.7372L81.1966 51.696L81.2198 51.6214L78.4156 36.6822L87.3452 38.1949L93.0358 39.2805L94.5048 38.9847L99.5549 37.9556C98.0826 34.8386 96.3039 31.8758 94.245 29.1109V29.1109ZM78.1378 35.8435L76.2135 35.7689L71.84 35.5965L68.8326 35.4808L67.6389 35.4345C67.5207 35.4302 67.4056 35.3953 67.3049 35.3332C67.2041 35.2712 67.1212 35.184 67.0642 35.0804C67.0072 34.9767 66.978 34.86 66.9796 34.7417C66.9811 34.6234 67.0133 34.5076 67.0729 34.4054L67.4254 33.7854L68.9227 31.151L68.9432 31.115C69.0707 30.8912 69.2745 30.7208 69.5173 30.6348C69.76 30.5489 70.0257 30.5531 70.2656 30.6468C70.2656 30.6468 70.7981 30.9041 71.6368 31.3388C72.4754 31.7736 73.5174 32.3679 74.6776 33.1062C76.8077 34.4646 77.438 34.5778 78.3385 35.0177C78.4305 35.059 78.5052 35.1313 78.5496 35.222C78.5939 35.3126 78.6052 35.4159 78.5813 35.514C78.5575 35.6121 78.5001 35.6987 78.4191 35.7589C78.3381 35.8191 78.2386 35.849 78.1378 35.8435V35.8435Z" fill="#B477FF"/>
<path d="M78.1378 35.8435L76.2134 35.7689L71.84 35.5965L68.8326 35.4808L67.6389 35.4345C67.5207 35.4301 67.4056 35.3953 67.3048 35.3332C67.2041 35.2711 67.1212 35.184 67.0642 35.0804C67.0072 34.9767 66.978 34.86 66.9795 34.7417C66.9811 34.6234 67.0133 34.5076 67.0729 34.4054L67.4254 33.7854L68.9226 31.151L68.9432 31.115C69.0707 30.8912 69.2745 30.7208 69.5173 30.6348C69.76 30.5489 70.0256 30.5531 70.2655 30.6468C70.2655 30.6468 70.7981 30.9041 71.6368 31.3388C72.4754 31.7736 73.5173 32.3679 74.6776 33.1062C76.8077 34.4646 77.438 34.5778 78.3384 35.0177C78.4305 35.059 78.5052 35.1313 78.5496 35.222C78.5939 35.3126 78.6052 35.4159 78.5813 35.514C78.5575 35.6121 78.5001 35.6987 78.4191 35.7589C78.3381 35.8191 78.2385 35.849 78.1378 35.8435V35.8435Z" fill="#B477FF"/>
<path d="M119.971 42.7896L118.502 45.9642L118.476 46.0362L118.273 46.6048L118.165 43.0546L117.193 43.1909L112.305 44.6907L110.599 49.6971L108.127 45.4651L102.022 47.0087L101.945 47.2428L99.9253 53.4171L96.1487 48.4751L94.5022 48.8198L88.9273 50.0289L88.0012 53.3013L86.6763 58.0272L83.9519 53.1521L83.0695 51.5725C83.033 51.507 82.9768 51.4546 82.909 51.4228C82.8411 51.3909 82.765 51.3812 82.6913 51.395L81.1812 51.6831L81.2043 51.6085L78.4001 36.6693L87.3452 38.1949L93.0358 39.2805L94.5048 38.9847L99.5548 37.9556C98.0802 34.8328 96.298 31.8648 94.2346 29.0955L102.874 27.9635C103.133 27.929 103.397 27.9462 103.65 28.0142C103.903 28.0822 104.14 28.1996 104.348 28.3597L108.273 31.3671L108.338 31.4031L117.599 34.6755C117.818 34.7524 118.014 34.884 118.168 35.0578C118.322 35.2316 118.429 35.4418 118.479 35.6686L119.945 42.2673C120.006 42.4349 120.015 42.6169 119.971 42.7896V42.7896Z" fill="#B477FF"/>
<path d="M108.111 45.4908L110.584 49.7228L99.9742 54.1117L80.9831 60.7902L80.9651 51.7372L82.9486 51.3616L86.6815 58.0401L88.9274 50.0264L96.1333 48.5137L99.9099 53.4557L102.007 47.037L108.111 45.4908Z" fill="#B477FF"/>
<path d="M72.2593 63.2342L65.1871 66.1824L65.1846 66.1773L72.2593 63.2342Z" fill="#181818"/>
<path d="M118.263 43.0134V46.6305L115.582 52.5475C115.39 52.9722 115.056 53.3169 114.638 53.5226L104.52 58.5186L90.0335 65.6499C90.0161 65.6589 90.0009 65.6715 89.9887 65.6868C89.9765 65.7021 89.9677 65.7198 89.9629 65.7387C89.958 65.7577 89.9572 65.7774 89.9605 65.7967C89.9638 65.816 89.9712 65.8343 89.982 65.8506L92.3746 69.1744L95.0064 72.8481L99.5779 79.2668L98.9039 79.5241L95.6418 77.6744L94.888 74.3814L93.1078 76.2337L86.2183 72.1535L86.2569 71.9503L87.0878 67.4636L83.2443 70.0362L83.072 70.152L75.138 65.0659L75.1817 64.9244L75.7246 63.1725L76.2802 61.3716L72.2695 63.2342L66.0952 66.5786L65.838 74.3145L67.6388 76.5913L59.6843 82.089L47.9968 78.4873L31.2902 84.2011L23.9274 87.5892L10.9408 92.2791C10.1295 91.2364 9.35776 90.1636 8.62542 89.0608V89.0453L7.20532 86.766C7.21402 86.6788 7.23126 86.5926 7.25678 86.5087C7.79188 84.7079 9.92201 78.9066 16.9581 70.7128L17.7557 70.5971L35.0746 68.0965C36.5542 67.8829 37.9994 67.4764 39.3734 66.8873L56.8209 57.9449C58.7169 56.7718 63.0081 55.2025 65.1897 54.7446L80.9701 51.75L81.1914 51.7089L82.7144 51.4207H82.735L82.9536 51.377L83.054 51.5597L83.9621 53.1804L86.6865 58.0555L88.0011 53.3142L88.8707 50.227C88.8841 50.1802 88.9083 50.1372 88.9414 50.1015C88.9744 50.0657 89.0154 50.0382 89.061 50.0212H89.1022L94.4764 48.8918L95.8399 48.6063C95.9231 48.5897 96.0092 48.5966 96.0887 48.6261C96.1682 48.6557 96.2379 48.7067 96.2901 48.7735V48.7735L99.8918 53.484L101.911 47.3097C101.936 47.2374 101.978 47.1723 102.034 47.1207C102.09 47.069 102.159 47.0322 102.233 47.0138L107.849 45.5912C107.919 45.5731 107.992 45.5784 108.059 45.6063C108.125 45.6342 108.181 45.6831 108.217 45.7455L110.563 49.7614L111.96 44.8477C111.982 44.7694 112.025 44.6981 112.082 44.6405C112.14 44.5829 112.211 44.5409 112.289 44.5184L117.01 43.1575C117.089 43.1347 117.17 43.1184 117.252 43.1086L118.178 42.9954C118.184 42.9903 118.192 42.9867 118.2 42.9848C118.208 42.9829 118.217 42.9829 118.225 42.9846C118.233 42.9863 118.24 42.9898 118.247 42.9947C118.254 42.9997 118.259 43.0061 118.263 43.0134V43.0134Z" fill="#4E2C7A"/>
<path d="M95.6393 77.6589V77.6615L95.5698 77.6229L95.6393 77.6589Z" fill="#4E2C7A"/>
<path d="M98.9092 79.5189L95.6394 77.6615L98.9041 79.5138L98.9092 79.5189Z" fill="#4E2C7A"/>
<path d="M96.6351 68.6496L94.9989 72.8507L92.3645 69.1744L96.6351 68.6496Z" fill="#4E2C7A"/>
<path d="M65.1872 66.1824L64.7087 70.2935L65.1847 66.1773L65.1872 66.1824Z" fill="#4E2C7A"/>
<path d="M104.482 82.6832L102.681 89.3566C102.635 89.5271 102.535 89.6779 102.396 89.7858C102.256 89.8937 102.085 89.9526 101.909 89.9535H96.9154C96.3318 89.9538 95.7554 89.8247 95.2278 89.5753L67.6416 76.5938L64.8966 75.0245C64.6913 74.9068 64.5251 74.7315 64.4186 74.5202C64.3121 74.3089 64.2698 74.071 64.2972 73.836L65.105 66.8616C65.1292 66.6549 65.2073 66.4582 65.3315 66.2911C65.4557 66.1241 65.6215 65.9926 65.8124 65.9097L76.2676 61.3716L75.1691 64.9244C75.1562 64.9639 75.1568 65.0065 75.1708 65.0456C75.1848 65.0847 75.2113 65.1181 75.2462 65.1405L82.8998 70.0285C82.9508 70.0613 83.0102 70.0787 83.0709 70.0787C83.1315 70.0787 83.1909 70.0613 83.242 70.0285L87.1009 67.4559L86.2674 71.9451C86.2569 72.0038 86.2646 72.0644 86.2894 72.1186C86.3142 72.1728 86.355 72.2182 86.4063 72.2487L93.1131 76.2208L94.8959 74.3659L95.6471 77.6512C95.6471 77.6512 95.6471 77.6512 95.6471 77.6666L98.9015 79.5138H98.9169L99.591 79.2565L103.826 77.6512L104.482 82.6832Z" fill="#B477FF"/>
<path d="M16.9583 70.7025L16.9531 70.7L16.9608 70.7025H16.9583Z" fill="#B477FF"/>
<path d="M31.2877 84.2165L31.2852 84.2191V84.2165H31.2877Z" fill="#B477FF"/>
<path d="M65.1872 66.1824L64.2045 74.6284L64.2019 74.6258L65.1846 66.1773L65.1872 66.1824Z" fill="#B477FF"/>
<path d="M78.1378 35.8435L76.2134 35.7689L71.84 35.5965L68.8326 35.4808L67.6389 35.4345C67.5207 35.4301 67.4056 35.3953 67.3048 35.3332C67.2041 35.2711 67.1212 35.184 67.0642 35.0804C67.0072 34.9767 66.978 34.86 66.9795 34.7417C66.9811 34.6234 67.0133 34.5076 67.0729 34.4054L67.4254 33.7854L68.9226 31.151L68.9432 31.115C69.0707 30.8912 69.2745 30.7208 69.5173 30.6348C69.76 30.5489 70.0256 30.5531 70.2655 30.6468C70.2655 30.6468 70.7981 30.9041 71.6368 31.3388C72.4754 31.7736 73.5173 32.3679 74.6776 33.1062C76.8077 34.4646 77.438 34.5778 78.3384 35.0177C78.4305 35.059 78.5052 35.1313 78.5496 35.222C78.5939 35.3126 78.6052 35.4159 78.5813 35.514C78.5575 35.6121 78.5001 35.6987 78.4191 35.7589C78.3381 35.8191 78.2385 35.849 78.1378 35.8435V35.8435Z" fill="#4E2C7A"/>
<path d="M68.0761 110.115C67.5891 110.271 67.0985 110.42 66.6046 110.563C66.3936 110.625 66.1853 110.684 65.9743 110.74C62.4116 111.703 58.757 112.286 55.0715 112.479V112.479H54.9661C54.0734 112.523 53.1652 112.546 52.2751 112.546C40.8056 112.564 29.6513 108.793 20.5444 101.821C16.983 99.0952 13.7842 95.9258 11.0257 92.3897L10.9485 92.2894L23.9274 87.5892L31.2825 84.214L46.4352 77.2679C46.8912 77.0569 47.3876 76.9477 47.8901 76.9477C48.3925 76.9477 48.8889 77.0569 49.3449 77.2679L59.6765 82.0915V95.3611C59.6758 96.699 60.0862 98.0048 60.8522 99.1017L64.1966 103.9L68.4234 108.873C68.5075 108.969 68.5663 109.085 68.5946 109.21C68.6228 109.334 68.6195 109.464 68.5851 109.588C68.5506 109.711 68.4861 109.824 68.3972 109.916C68.3084 110.008 68.1981 110.076 68.0761 110.115V110.115Z" fill="#B477FF"/>
<path d="M65.1872 66.1824L64.2045 74.6284L64.2019 74.6258L65.1846 66.1773L65.1872 66.1824Z" fill="#4E2C7A"/>
<path d="M16.9583 70.7025L16.9531 70.7L16.9608 70.7025H16.9583Z" fill="#4E2C7A"/>
<path d="M116.763 40.4073C116.755 40.4307 116.74 40.4512 116.721 40.4661C116.701 40.4811 116.677 40.49 116.653 40.4917C116.628 40.4933 116.603 40.4876 116.582 40.4754C116.56 40.4631 116.543 40.4448 116.532 40.4228C115.616 37.1041 114.906 36.2654 111.067 35.0023C110.934 34.9559 110.949 34.8042 111.093 34.8067C112.699 34.8402 115.13 35.419 115.948 36.2062C116.977 37.1967 116.954 39.3371 116.763 40.4073Z" fill="#4E2C7A"/>
</g>
</g>
<path fill-rule="evenodd" clip-rule="evenodd" d="M239.72 60.7816C239.72 73.3249 243.959 79.5966 252.438 79.5966C260.916 79.5966 265.155 73.3249 265.155 60.7816C265.155 48.2382 260.916 41.9665 252.438 41.9665C243.959 41.9665 239.72 48.2382 239.72 60.7816ZM258.535 72.6648C257.25 74.7495 255.217 75.7919 252.438 75.7919C251.106 75.7919 249.942 75.5527 248.945 75.0742L259.153 50.0929C260.062 52.0679 260.516 54.6405 260.516 57.8108V63.7524C260.516 67.5744 259.856 70.5452 258.535 72.6648ZM256.232 46.6669L245.898 71.9567C244.872 69.9012 244.359 67.1664 244.359 63.7524V57.8108C244.359 53.9887 245.002 51.0353 246.287 48.9505C247.608 46.831 249.658 45.7712 252.438 45.7712C253.913 45.7712 255.178 46.0698 256.232 46.6669ZM158.163 42.592H148V78.9712H158.163C162.576 78.9712 165.876 77.4423 168.065 74.3847C170.289 71.327 171.401 66.7927 171.401 60.7816C171.401 54.7705 170.289 50.2361 168.065 47.1784C165.876 44.1208 162.576 42.592 158.163 42.592ZM164.469 72.1436C162.975 74.1588 160.803 75.1665 157.954 75.1665H152.378V46.3967H157.954C160.803 46.3967 162.975 47.4043 164.469 49.4196C165.998 51.4348 166.762 54.284 166.762 57.9671V63.596C166.762 67.2791 165.998 70.1283 164.469 72.1436ZM178.677 75.4792V78.9712H201.193V75.4792H192.124V46.0839H201.193V42.592H178.677V46.0839H187.746V75.4792H178.677ZM214.046 48.1687H213.681V78.9712H209.72V42.592H215.922L228.327 73.0817H228.691V42.592H232.653V78.9712H226.45L214.046 48.1687Z" fill="white"/>
<path d="M303.517 62.4496H289.341V78.9714H284.963V42.5922H289.341V58.6449H303.517V42.5922H307.895V78.9714H303.517V62.4496Z" fill="white"/>
<path d="M334.039 74.5934H333.83C332.406 77.929 329.852 79.5968 326.169 79.5968C323.319 79.5968 321.044 78.6934 319.341 76.8866C317.673 75.0798 316.839 72.5607 316.839 69.3293V52.0779H321.009V68.5997C321.009 71.0319 321.547 72.8561 322.625 74.0722C323.702 75.2883 325.283 75.8964 327.367 75.8964C329.209 75.8964 330.772 75.462 332.058 74.5934C333.378 73.69 334.039 72.4044 334.039 70.7366V52.0779H338.208V78.9714H334.039V74.5934Z" fill="white"/>
<path d="M348.247 40.4032H352.416V56.4559H352.625C354.362 53.1203 357.124 51.4524 360.912 51.4524C364.213 51.4524 366.784 52.7033 368.625 55.205C370.502 57.672 371.44 61.1119 371.44 65.5246C371.44 69.9374 370.502 73.3946 368.625 75.8964C366.784 78.3633 364.213 79.5968 360.912 79.5968C357.124 79.5968 354.362 77.929 352.625 74.5934H352.416V78.9714H348.247V40.4032ZM359.296 75.8964C361.694 75.8964 363.57 75.1667 364.925 73.7074C366.28 72.248 366.958 70.2849 366.958 67.8179V63.2314C366.958 60.7644 366.28 58.8013 364.925 57.3419C363.57 55.8826 361.694 55.1529 359.296 55.1529C357.35 55.1529 355.717 55.6394 354.397 56.6122C353.077 57.5851 352.416 58.9402 352.416 60.6776V70.3717C352.416 72.109 353.077 73.4641 354.397 74.437C355.717 75.4099 357.35 75.8964 359.296 75.8964Z" fill="white"/>
<defs>
<clipPath id="clip0_241_8284">
<rect width="120" height="120" fill="white" transform="translate(-0.000488281)"/>
</clipPath>
<clipPath id="clip1_241_8284">
<rect width="120" height="104.551" fill="white" transform="translate(-0.000488281 8)"/>
</clipPath>
</defs>
</svg>
