<svg width="384" height="120" viewBox="0 0 384 120" fill="none" xmlns="http://www.w3.org/2000/svg">
<g clip-path="url(#clip0_241_8386)">
<g clip-path="url(#clip1_241_8386)">
<path d="M71.6394 31.3466L68.9253 31.1588L68.9459 31.1228C69.0734 30.899 69.2771 30.7285 69.5199 30.6426C69.7627 30.5566 70.0283 30.5609 70.2682 30.6545C70.2682 30.6545 70.8007 30.9015 71.6394 31.3466Z" fill="#FF7092"/>
<path d="M104.546 59.6917C104.546 59.3161 104.546 58.943 104.523 58.5674C104.524 58.5503 104.524 58.5331 104.523 58.516C104.459 56.5142 104.279 54.5179 103.982 52.5372C103.874 51.7912 103.748 51.0528 103.604 50.317C103.548 50.0135 103.486 49.7125 103.419 49.4089C103.247 48.6234 103.065 47.8465 102.871 47.0781L101.934 47.2762L100.1 47.6621L94.5202 48.8326L94.4919 48.8635L90.4915 53.1881L87.9857 53.7361L88.0166 53.3167L88.2559 50.1575L83.9647 53.1804L80.9831 55.2796L80.0055 55.4932L81.194 51.7114L80.9728 51.7526L65.1923 54.7471C63.0107 55.205 58.7196 56.7743 56.8236 57.9474L39.3786 66.8744C38.0046 67.4635 36.5594 67.87 35.0797 68.0836L17.7608 70.5842L16.9633 70.6999L30.5468 58.004C30.589 57.965 30.6432 57.9412 30.7006 57.9366C30.7579 57.9319 30.8152 57.9466 30.8632 57.9783L37.9559 62.0173L33.6005 55.0507C33.5763 55.007 33.5654 54.9572 33.5691 54.9074C33.5727 54.8576 33.5908 54.81 33.6211 54.7703L37.7373 48.8532C37.7702 48.8112 37.8153 48.7804 37.8665 48.7652C37.9177 48.75 37.9723 48.7511 38.0228 48.7683L46.0263 52.5372L40.9685 44.9351C40.9429 44.8911 40.9309 44.8404 40.9341 44.7896C40.9373 44.7388 40.9556 44.69 40.9865 44.6496L44.7168 39.8207C44.7484 39.7784 44.7922 39.7468 44.8424 39.7302C44.8926 39.7136 44.9466 39.7129 44.9972 39.7281L53.9834 43.7954L48.4317 35.2157C48.4018 35.1727 48.3858 35.1215 48.3858 35.0691C48.3858 35.0167 48.4018 34.9655 48.4317 34.9225L52.7279 30.6416C52.7504 30.6127 52.7788 30.589 52.8111 30.5719C52.8435 30.5549 52.8791 30.5449 52.9157 30.5427C52.9522 30.5405 52.9887 30.5461 53.0229 30.5592C53.0571 30.5723 53.0881 30.5925 53.1138 30.6185L59.8181 37.225L57.8526 28.46C57.8486 28.4192 57.8544 28.378 57.8696 28.3398C57.8847 28.3016 57.9088 28.2677 57.9398 28.2407C57.9708 28.2138 58.0077 28.1947 58.0476 28.1849C58.0875 28.1752 58.1291 28.1751 58.169 28.1848L64.189 29.3527L69.077 25.2365C69.1144 25.2053 69.1598 25.1854 69.2081 25.179C69.2564 25.1727 69.3055 25.1801 69.3497 25.2005L81.1194 30.796C81.1628 30.819 81.2125 30.8271 81.2609 30.8191L93.9517 29.1598L94.2346 29.1238L94.2063 29.0826C89.3468 22.5407 83.0229 17.2277 75.7411 13.5689C68.4593 9.91011 60.4219 8.0073 52.2726 8.01283C23.4 8.01283 -0.00310422 31.4237 -0.00310422 60.2885C-0.0183447 69.6069 2.46942 78.7584 7.20023 86.7865V86.7865C7.24654 86.8714 7.29799 86.9563 7.34687 87.0438C7.75506 87.7298 8.18383 88.4056 8.63318 89.071V89.0865C9.36038 90.1893 10.1322 91.2621 10.9485 92.3048L11.0257 92.4051C13.7843 95.9412 16.9831 99.1106 20.5444 101.836C29.6536 108.802 40.8077 112.566 52.2752 112.544C53.1782 112.544 54.076 112.52 54.9661 112.477H55.0716C58.7569 112.285 62.4115 111.704 65.9744 110.743C66.1853 110.686 66.3937 110.627 66.6047 110.565C67.5565 110.308 68.4956 109.999 69.4346 109.678C80.0431 105.982 89.1829 98.9742 95.5055 89.6885L95.5981 89.5547C95.6393 89.4904 95.6856 89.4286 95.7268 89.3617C96.4625 88.2607 97.1623 87.1338 97.8157 85.9762L98.0473 85.5646C99.0002 83.8453 99.8548 82.0733 100.607 80.2572C100.823 79.7427 101.029 79.2127 101.23 78.6828C101.229 78.6742 101.229 78.6656 101.23 78.6571C103.43 72.7833 104.555 66.561 104.548 60.2885C104.551 60.0801 104.551 59.8872 104.546 59.6917ZM74.6801 33.1139C73.5199 32.373 72.4394 31.771 71.6393 31.3465C70.8392 30.922 70.2681 30.6545 70.2681 30.6545C70.0282 30.5608 69.7626 30.5566 69.5198 30.6425C69.277 30.7285 69.0733 30.8989 68.9458 31.1227L68.9252 31.1587L67.4202 33.7931L67.0677 34.4131C67.0081 34.5152 66.9759 34.6311 66.9744 34.7494C66.9728 34.8677 67.002 34.9844 67.059 35.0881C67.116 35.1917 67.1989 35.2788 67.2997 35.3409C67.4004 35.4029 67.5155 35.4378 67.6337 35.4421L68.8274 35.4884L71.8348 35.6042L76.2083 35.7766L78.1326 35.8512C78.2306 35.8532 78.3263 35.8218 78.4041 35.7622C78.4819 35.7026 78.5372 35.6184 78.5608 35.5233C78.5845 35.4282 78.5751 35.3278 78.5342 35.2388C78.4933 35.1497 78.4234 35.0772 78.3358 35.0331C77.4534 34.5932 76.8103 34.4723 74.6801 33.1139Z" fill="#C9CEFF"/>
<path d="M16.9583 70.7025L16.9531 70.7L16.9608 70.7025H16.9583Z" fill="#FF7092"/>
<path d="M65.1872 66.1825L64.7087 70.2935L64.2045 74.6284L64.2019 74.6258L64.7061 70.2935L65.1846 66.1773L65.1872 66.1825Z" fill="#FF7092"/>
<path d="M94.245 29.111L93.962 29.147L81.2712 30.8063C81.2228 30.8143 81.1731 30.8062 81.1297 30.7832L69.36 25.1877C69.3158 25.1673 69.2667 25.1598 69.2184 25.1662C69.1702 25.1726 69.1247 25.1925 69.0873 25.2237L64.1993 29.3399L57.1529 27.1661C57.113 27.1564 57.0714 27.1565 57.0315 27.1662C56.9916 27.1759 56.9546 27.1951 56.9236 27.222C56.8927 27.249 56.8686 27.283 56.8534 27.3211C56.8383 27.3593 56.8324 27.4005 56.8365 27.4413L59.8284 37.2173L53.1242 30.6108C53.0984 30.5848 53.0674 30.5646 53.0333 30.5515C52.9991 30.5385 52.9625 30.5329 52.926 30.535C52.8895 30.5372 52.8538 30.5472 52.8215 30.5642C52.7891 30.5813 52.7607 30.6051 52.7383 30.634L48.442 34.9148C48.4121 34.9579 48.3961 35.009 48.3961 35.0614C48.3961 35.1139 48.4121 35.165 48.442 35.2081L53.9937 43.7878L45.0075 39.7205C44.957 39.7052 44.9029 39.706 44.8527 39.7225C44.8026 39.7391 44.7587 39.7707 44.7271 39.8131L40.9968 44.6419C40.9659 44.6824 40.9477 44.7311 40.9445 44.7819C40.9412 44.8328 40.9532 44.8834 40.9788 44.9274L46.0366 52.5295L38.0332 48.7607C37.9826 48.7434 37.928 48.7423 37.8768 48.7576C37.8257 48.7728 37.7805 48.8035 37.7476 48.8456L33.6314 54.7626C33.6011 54.8023 33.5831 54.8499 33.5794 54.8997C33.5758 54.9495 33.5867 54.9993 33.6108 55.043L37.9663 62.0097L30.8736 57.9706C30.8255 57.9389 30.7683 57.9242 30.7109 57.9289C30.6535 57.9335 30.5994 57.9573 30.5571 57.9964L16.9634 70.7L17.7609 70.5842L35.0798 68.0836C36.5594 67.8701 38.0047 67.4636 39.3786 66.8745L56.8262 57.932C58.7222 56.7589 63.0133 55.1896 65.1949 54.7317L80.9754 51.7372L81.1966 51.696L81.2198 51.6214L78.4156 36.6822L87.3452 38.1949L93.0358 39.2805L94.5048 38.9847L99.5549 37.9556C98.0826 34.8386 96.3039 31.8758 94.245 29.111V29.111ZM78.1378 35.8435L76.2135 35.7689L71.84 35.5965L68.8326 35.4808L67.6389 35.4345C67.5207 35.4302 67.4056 35.3953 67.3049 35.3332C67.2041 35.2712 67.1212 35.1841 67.0642 35.0804C67.0072 34.9767 66.978 34.86 66.9796 34.7417C66.9811 34.6234 67.0133 34.5076 67.0729 34.4054L67.4254 33.7854L68.9227 31.151L68.9432 31.115C69.0707 30.8913 69.2745 30.7208 69.5173 30.6348C69.76 30.5489 70.0257 30.5531 70.2656 30.6468C70.2656 30.6468 70.7981 30.9041 71.6368 31.3388C72.4754 31.7736 73.5174 32.3679 74.6776 33.1062C76.8077 34.4646 77.438 34.5778 78.3385 35.0177C78.4305 35.0591 78.5052 35.1313 78.5496 35.222C78.5939 35.3126 78.6052 35.4159 78.5813 35.514C78.5575 35.6121 78.5001 35.6987 78.4191 35.7589C78.3381 35.8191 78.2386 35.849 78.1378 35.8435V35.8435Z" fill="#FF7092"/>
<path d="M78.1378 35.8435L76.2134 35.7689L71.84 35.5965L68.8326 35.4808L67.6389 35.4345C67.5207 35.4301 67.4056 35.3953 67.3048 35.3332C67.2041 35.2711 67.1212 35.184 67.0642 35.0804C67.0072 34.9767 66.978 34.86 66.9795 34.7417C66.9811 34.6234 67.0133 34.5076 67.0729 34.4054L67.4254 33.7854L68.9226 31.151L68.9432 31.115C69.0707 30.8912 69.2745 30.7208 69.5173 30.6348C69.76 30.5489 70.0256 30.5531 70.2655 30.6468C70.2655 30.6468 70.7981 30.9041 71.6368 31.3388C72.4754 31.7736 73.5173 32.3679 74.6776 33.1062C76.8077 34.4646 77.438 34.5778 78.3384 35.0177C78.4305 35.059 78.5052 35.1313 78.5496 35.222C78.5939 35.3126 78.6052 35.4159 78.5813 35.514C78.5575 35.6121 78.5001 35.6987 78.4191 35.7589C78.3381 35.8191 78.2385 35.849 78.1378 35.8435V35.8435Z" fill="#FF7092"/>
<path d="M119.971 42.7896L118.502 45.9642L118.476 46.0362L118.273 46.6048L118.165 43.0545L117.193 43.1909L112.305 44.6907L110.599 49.6971L108.127 45.4651L102.022 47.0087L101.945 47.2428L99.9253 53.4171L96.1487 48.4751L94.5022 48.8198L88.9273 50.0289L88.0012 53.3013L86.6763 58.0272L83.9519 53.1521L83.0695 51.5725C83.033 51.507 82.9768 51.4546 82.909 51.4228C82.8411 51.3909 82.765 51.3812 82.6913 51.395L81.1812 51.6831L81.2043 51.6085L78.4001 36.6693L87.3452 38.1949L93.0358 39.2805L94.5048 38.9847L99.5548 37.9556C98.0802 34.8328 96.298 31.8647 94.2346 29.0955L102.874 27.9635C103.133 27.9289 103.397 27.9462 103.65 28.0142C103.903 28.0822 104.14 28.1996 104.348 28.3597L108.273 31.3671L108.338 31.4031L117.599 34.6755C117.818 34.7524 118.014 34.884 118.168 35.0578C118.322 35.2316 118.429 35.4418 118.479 35.6685L119.945 42.2673C120.006 42.4348 120.015 42.6169 119.971 42.7896V42.7896Z" fill="#FF7092"/>
<path d="M108.111 45.4908L110.584 49.7228L99.9742 54.1117L80.9831 60.7902L80.9651 51.7372L82.9486 51.3616L86.6815 58.0401L88.9274 50.0264L96.1333 48.5137L99.9099 53.4557L102.007 47.037L108.111 45.4908Z" fill="#FF7092"/>
<path d="M72.2593 63.2342L65.1871 66.1824L65.1846 66.1773L72.2593 63.2342Z" fill="#181818"/>
<path d="M118.263 43.0134V46.6305L115.582 52.5475C115.39 52.9722 115.056 53.3169 114.638 53.5226L104.52 58.5186L90.0335 65.6499C90.0161 65.6589 90.0009 65.6715 89.9887 65.6868C89.9765 65.7021 89.9677 65.7198 89.9629 65.7387C89.958 65.7577 89.9572 65.7774 89.9605 65.7967C89.9638 65.816 89.9712 65.8343 89.982 65.8506L92.3746 69.1744L95.0064 72.8481L99.5779 79.2668L98.9039 79.5241L95.6418 77.6744L94.888 74.3814L93.1078 76.2337L86.2183 72.1535L86.2569 71.9503L87.0878 67.4636L83.2443 70.0362L83.072 70.152L75.138 65.0659L75.1817 64.9244L75.7246 63.1725L76.2802 61.3716L72.2695 63.2342L66.0952 66.5786L65.838 74.3145L67.6388 76.5913L59.6843 82.089L47.9968 78.4873L31.2902 84.2011L23.9274 87.5892L10.9408 92.2791C10.1295 91.2364 9.35776 90.1636 8.62542 89.0608V89.0453L7.20532 86.766C7.21402 86.6788 7.23126 86.5926 7.25678 86.5087C7.79188 84.7079 9.92201 78.9066 16.9581 70.7128L17.7557 70.5971L35.0746 68.0965C36.5542 67.8829 37.9994 67.4764 39.3734 66.8873L56.8209 57.9449C58.7169 56.7718 63.0081 55.2025 65.1897 54.7446L80.9701 51.75L81.1914 51.7089L82.7144 51.4207H82.735L82.9536 51.377L83.054 51.5597L83.9621 53.1804L86.6865 58.0555L88.0011 53.3142L88.8707 50.227C88.8841 50.1802 88.9083 50.1372 88.9414 50.1015C88.9744 50.0657 89.0154 50.0382 89.061 50.0212H89.1022L94.4764 48.8918L95.8399 48.6063C95.9231 48.5897 96.0092 48.5966 96.0887 48.6261C96.1682 48.6557 96.2379 48.7067 96.2901 48.7735V48.7735L99.8918 53.484L101.911 47.3097C101.936 47.2374 101.978 47.1723 102.034 47.1207C102.09 47.069 102.159 47.0322 102.233 47.0138L107.849 45.5912C107.919 45.5731 107.992 45.5784 108.059 45.6063C108.125 45.6342 108.181 45.6831 108.217 45.7455L110.563 49.7614L111.96 44.8477C111.982 44.7694 112.025 44.6981 112.082 44.6405C112.14 44.5829 112.211 44.5409 112.289 44.5184L117.01 43.1575C117.089 43.1347 117.17 43.1184 117.252 43.1086L118.178 42.9954C118.184 42.9903 118.192 42.9867 118.2 42.9848C118.208 42.9829 118.217 42.9829 118.225 42.9846C118.233 42.9863 118.24 42.9898 118.247 42.9947C118.254 42.9997 118.259 43.0061 118.263 43.0134V43.0134Z" fill="#7E1B3F"/>
<path d="M95.6393 77.6589V77.6615L95.5698 77.6229L95.6393 77.6589Z" fill="#7E1B3F"/>
<path d="M98.9092 79.5189L95.6394 77.6615L98.9041 79.5138L98.9092 79.5189Z" fill="#7E1B3F"/>
<path d="M96.6351 68.6496L94.9989 72.8507L92.3645 69.1744L96.6351 68.6496Z" fill="#7E1B3F"/>
<path d="M65.1872 66.1825L64.7087 70.2935L65.1847 66.1773L65.1872 66.1825Z" fill="#7E1B3F"/>
<path d="M104.482 82.6832L102.681 89.3566C102.635 89.5271 102.535 89.6779 102.396 89.7858C102.256 89.8937 102.085 89.9526 101.909 89.9535H96.9154C96.3318 89.9538 95.7554 89.8247 95.2278 89.5753L67.6416 76.5939L64.8966 75.0245C64.6913 74.9068 64.5251 74.7315 64.4186 74.5202C64.3121 74.3089 64.2698 74.071 64.2972 73.836L65.105 66.8616C65.1292 66.6549 65.2073 66.4582 65.3315 66.2911C65.4557 66.1241 65.6215 65.9926 65.8124 65.9097L76.2676 61.3716L75.1691 64.9244C75.1562 64.9639 75.1568 65.0065 75.1708 65.0456C75.1848 65.0847 75.2113 65.1181 75.2462 65.1405L82.8998 70.0285C82.9508 70.0613 83.0102 70.0787 83.0709 70.0787C83.1315 70.0787 83.1909 70.0613 83.242 70.0285L87.1009 67.4559L86.2674 71.9451C86.2569 72.0038 86.2646 72.0644 86.2894 72.1186C86.3142 72.1728 86.355 72.2182 86.4063 72.2487L93.1131 76.2208L94.8959 74.3659L95.6471 77.6512C95.6471 77.6512 95.6471 77.6512 95.6471 77.6666L98.9015 79.5138H98.9169L99.591 79.2565L103.826 77.6512L104.482 82.6832Z" fill="#FF7092"/>
<path d="M16.9583 70.7025L16.9531 70.7L16.9608 70.7025H16.9583Z" fill="#FF7092"/>
<path d="M31.2877 84.2166L31.2852 84.2191V84.2166H31.2877Z" fill="#FF7092"/>
<path d="M65.1872 66.1825L64.2045 74.6284L64.2019 74.6258L65.1846 66.1773L65.1872 66.1825Z" fill="#FF7092"/>
<path d="M78.1378 35.8435L76.2134 35.7689L71.84 35.5965L68.8326 35.4808L67.6389 35.4345C67.5207 35.4301 67.4056 35.3953 67.3048 35.3332C67.2041 35.2711 67.1212 35.184 67.0642 35.0804C67.0072 34.9767 66.978 34.86 66.9795 34.7417C66.9811 34.6234 67.0133 34.5076 67.0729 34.4054L67.4254 33.7854L68.9226 31.151L68.9432 31.115C69.0707 30.8912 69.2745 30.7208 69.5173 30.6348C69.76 30.5489 70.0256 30.5531 70.2655 30.6468C70.2655 30.6468 70.7981 30.9041 71.6368 31.3388C72.4754 31.7736 73.5173 32.3679 74.6776 33.1062C76.8077 34.4646 77.438 34.5778 78.3384 35.0177C78.4305 35.059 78.5052 35.1313 78.5496 35.222C78.5939 35.3126 78.6052 35.4159 78.5813 35.514C78.5575 35.6121 78.5001 35.6987 78.4191 35.7589C78.3381 35.8191 78.2385 35.849 78.1378 35.8435V35.8435Z" fill="#7E1B3F"/>
<path d="M68.0761 110.115C67.5891 110.271 67.0985 110.42 66.6046 110.563C66.3936 110.625 66.1853 110.684 65.9743 110.74C62.4116 111.703 58.757 112.286 55.0715 112.479V112.479H54.9661C54.0734 112.523 53.1652 112.546 52.2751 112.546C40.8056 112.564 29.6513 108.793 20.5444 101.821C16.983 99.0952 13.7842 95.9258 11.0257 92.3897L10.9485 92.2894L23.9274 87.5892L31.2825 84.214L46.4352 77.2679C46.8912 77.0569 47.3876 76.9477 47.8901 76.9477C48.3925 76.9477 48.8889 77.0569 49.3449 77.2679L59.6765 82.0915V95.3611C59.6758 96.699 60.0862 98.0048 60.8522 99.1017L64.1966 103.9L68.4234 108.873C68.5075 108.969 68.5663 109.085 68.5946 109.21C68.6228 109.334 68.6195 109.464 68.5851 109.588C68.5506 109.711 68.4861 109.824 68.3972 109.916C68.3084 110.008 68.1981 110.076 68.0761 110.115V110.115Z" fill="#FF7092"/>
<path d="M65.1872 66.1825L64.2045 74.6284L64.2019 74.6258L65.1846 66.1773L65.1872 66.1825Z" fill="#7E1B3F"/>
<path d="M16.9583 70.7025L16.9531 70.7L16.9608 70.7025H16.9583Z" fill="#7E1B3F"/>
<path d="M116.763 40.4073C116.755 40.4307 116.74 40.4512 116.721 40.4661C116.701 40.4811 116.677 40.49 116.653 40.4917C116.628 40.4933 116.603 40.4876 116.582 40.4754C116.56 40.4631 116.543 40.4448 116.532 40.4228C115.616 37.1041 114.906 36.2654 111.067 35.0023C110.934 34.9559 110.949 34.8042 111.093 34.8067C112.699 34.8402 115.13 35.419 115.948 36.2062C116.977 37.1967 116.954 39.3371 116.763 40.4073Z" fill="#7E1B3F"/>
</g>
</g>
<path fill-rule="evenodd" clip-rule="evenodd" d="M239.72 35.2816C239.72 47.825 243.959 54.0966 252.438 54.0966C260.916 54.0966 265.155 47.825 265.155 35.2816C265.155 22.7382 260.916 16.4666 252.438 16.4666C243.959 16.4666 239.72 22.7382 239.72 35.2816ZM258.535 47.1648C257.25 49.2495 255.217 50.2919 252.438 50.2919C251.106 50.2919 249.942 50.0527 248.945 49.5742L259.153 24.5929C260.062 26.5679 260.516 29.1405 260.516 32.3108V38.2524C260.516 42.0745 259.856 45.0453 258.535 47.1648ZM256.232 21.1669L245.898 46.4568C244.872 44.4012 244.359 41.6664 244.359 38.2524V32.3108C244.359 28.4887 245.002 25.5353 246.287 23.4505C247.608 21.331 249.658 20.2713 252.438 20.2713C253.913 20.2713 255.178 20.5698 256.232 21.1669ZM158.163 17.092H148V53.4712H158.163C162.576 53.4712 165.876 51.9424 168.065 48.8847C170.289 45.8271 171.401 41.2927 171.401 35.2816C171.401 29.2705 170.289 24.7361 168.065 21.6785C165.876 18.6208 162.576 17.092 158.163 17.092ZM164.469 46.6436C162.975 48.6589 160.803 49.6665 157.954 49.6665H152.378V20.8967H157.954C160.803 20.8967 162.975 21.9043 164.469 23.9196C165.998 25.9349 166.762 28.7841 166.762 32.4672V38.096C166.762 41.7791 165.998 44.6283 164.469 46.6436ZM178.677 49.9792V53.4712H201.193V49.9792H192.124V20.584H201.193V17.092H178.677V20.584H187.746V49.9792H178.677ZM214.046 22.6687H213.681V53.4712H209.72V17.092H215.922L228.327 47.5817H228.691V17.092H232.653V53.4712H226.45L214.046 22.6687Z" fill="white"/>
<path d="M303.517 36.9496H289.341V53.4714H284.963V17.0922H289.341V33.1449H303.517V17.0922H307.895V53.4714H303.517V36.9496Z" fill="white"/>
<path d="M334.039 49.0934H333.83C332.406 52.429 329.852 54.0969 326.169 54.0969C323.319 54.0969 321.044 53.1935 319.341 51.3867C317.673 49.5799 316.839 47.0608 316.839 43.8294V26.5779H321.009V43.0997C321.009 45.5319 321.547 47.3561 322.625 48.5722C323.702 49.7883 325.283 50.3964 327.367 50.3964C329.209 50.3964 330.772 49.9621 332.058 49.0934C333.378 48.19 334.039 46.9044 334.039 45.2366V26.5779H338.208V53.4714H334.039V49.0934Z" fill="white"/>
<path d="M348.247 14.9032H352.416V30.9559H352.625C354.362 27.6203 357.124 25.9525 360.912 25.9525C364.213 25.9525 366.784 27.2033 368.625 29.7051C370.502 32.172 371.44 35.6119 371.44 40.0247C371.44 44.4374 370.502 47.8947 368.625 50.3964C366.784 52.8634 364.213 54.0969 360.912 54.0969C357.124 54.0969 354.362 52.429 352.625 49.0934H352.416V53.4714H348.247V14.9032ZM359.296 50.3964C361.694 50.3964 363.57 49.6667 364.925 48.2074C366.28 46.7481 366.958 44.7849 366.958 42.3179V37.7314C366.958 35.2644 366.28 33.3013 364.925 31.8419C363.57 30.3826 361.694 29.6529 359.296 29.6529C357.35 29.6529 355.717 30.1394 354.397 31.1123C353.077 32.0852 352.416 33.4403 352.416 35.1776V44.8718C352.416 46.6091 353.077 47.9642 354.397 48.9371C355.717 49.91 357.35 50.3964 359.296 50.3964Z" fill="white"/>
<path d="M161.467 98.0968L159.815 92.5248H152.955L151.303 98.0968H148.867L154.859 78.5528H157.967L163.959 98.0968H161.467ZM156.511 81.0448H156.259L153.515 90.4808H159.255L156.511 81.0448Z" fill="#FE7193"/>
<path d="M167.14 98.0968V96.2208H172.012V80.4288H167.14V78.5528H179.236V80.4288H174.364V96.2208H179.236V98.0968H167.14Z" fill="#FE7193"/>
<path d="M211.107 82.1088H210.883L206.767 92.1608L202.651 82.1088H202.427V98.0968H200.271V78.5528H203.295L206.739 87.1768H206.907L210.351 78.5528H213.263V98.0968H211.107V82.1088Z" fill="#FE7193"/>
<path d="M229.016 98.0968C227.504 98.0968 226.645 97.3128 226.44 95.7448H226.3C225.628 97.5368 224.181 98.4328 221.96 98.4328C220.448 98.4328 219.244 98.0408 218.348 97.2568C217.452 96.4728 217.004 95.3995 217.004 94.0368C217.004 91.2368 219.076 89.8368 223.22 89.8368H226.3V88.4088C226.3 87.3635 226.001 86.5702 225.404 86.0288C224.806 85.4875 223.957 85.2168 222.856 85.2168C221.101 85.2168 219.813 85.9262 218.992 87.3448L217.48 86.2248C217.872 85.4035 218.544 84.7128 219.496 84.1528C220.448 83.5928 221.614 83.3128 222.996 83.3128C224.694 83.3128 226.038 83.7515 227.028 84.6288C228.036 85.4875 228.54 86.6728 228.54 88.1848V95.1288C228.54 95.4088 228.633 95.6515 228.82 95.8568C229.025 96.0435 229.268 96.1368 229.548 96.1368H230.556V98.0968H229.016ZM222.352 96.5568C223.49 96.5568 224.433 96.3048 225.18 95.8008C225.926 95.2782 226.3 94.6435 226.3 93.8968V91.5168H223.22C220.644 91.5168 219.356 92.2448 219.356 93.7008V94.2888C219.356 95.0168 219.617 95.5768 220.14 95.9688C220.681 96.3608 221.418 96.5568 222.352 96.5568Z" fill="#FE7193"/>
<path d="M234.101 96.1928H238.329V85.5528H234.101V83.6488H240.569V87.2888H240.709C241.418 84.8622 243.042 83.6488 245.581 83.6488H247.597V85.8888H244.881C243.518 85.8888 242.454 86.2715 241.689 87.0368C240.942 87.8022 240.569 88.7728 240.569 89.9488V96.1928H246.169V98.0968H234.101V96.1928Z" fill="#FE7193"/>
<path d="M251.674 77.3768H253.914V90.4528H254.026L256.546 88.0728L261.362 83.6488H264.106L258.114 89.3048L264.806 98.0968H262.034L256.406 90.5928L253.914 92.8608V98.0968H251.674V77.3768Z" fill="#FE7193"/>
<path d="M274.175 98.4328C272.812 98.4328 271.618 98.1248 270.591 97.5088C269.564 96.8928 268.771 96.0155 268.211 94.8768C267.67 93.7382 267.399 92.4128 267.399 90.9008C267.399 89.3888 267.679 88.0635 268.239 86.9248C268.799 85.7675 269.574 84.8808 270.563 84.2648C271.571 83.6302 272.728 83.3128 274.035 83.3128C275.304 83.3128 276.424 83.6208 277.395 84.2368C278.366 84.8342 279.112 85.6648 279.635 86.7288C280.176 87.7928 280.447 89.0062 280.447 90.3688V91.4328H269.751V92.1048C269.751 93.3928 270.152 94.4475 270.955 95.2688C271.758 96.0902 272.831 96.5008 274.175 96.5008C275.127 96.5008 275.958 96.2862 276.667 95.8568C277.376 95.4088 277.927 94.7835 278.319 93.9808L279.971 95.1008C279.523 96.1088 278.786 96.9208 277.759 97.5368C276.751 98.1342 275.556 98.4328 274.175 98.4328ZM274.035 85.1608C273.232 85.1608 272.504 85.3568 271.851 85.7488C271.198 86.1222 270.684 86.6448 270.311 87.3168C269.938 87.9888 269.751 88.7355 269.751 89.5568V89.7528H278.039V89.4448C278.039 88.1755 277.666 87.1488 276.919 86.3648C276.191 85.5622 275.23 85.1608 274.035 85.1608Z" fill="#FE7193"/>
<path d="M290.46 93.2808C290.46 94.1768 290.6 94.8395 290.88 95.2688C291.16 95.6795 291.561 95.9408 292.084 96.0528C292.625 96.1462 293.428 96.1928 294.492 96.1928H296.256V98.0968H294.52C293.045 98.0968 291.86 97.9755 290.964 97.7328C290.087 97.4715 289.405 96.9862 288.92 96.2768C288.453 95.5675 288.22 94.5595 288.22 93.2528V85.5528H283.404V83.6488H288.22V78.5528H290.46V83.6488H297.04V85.5528H290.46V93.2808Z" fill="#FE7193"/>
<path d="M301.761 83.6488H304.001V86.0008H304.113C305.046 84.2088 306.53 83.3128 308.565 83.3128C310.338 83.3128 311.72 83.9848 312.709 85.3288C313.717 86.6542 314.221 88.5022 314.221 90.8728C314.221 93.2435 313.717 95.1008 312.709 96.4448C311.72 97.7702 310.338 98.4328 308.565 98.4328C306.53 98.4328 305.046 97.5368 304.113 95.7448H304.001V103.697H301.761V83.6488ZM307.697 96.4448C308.985 96.4448 309.993 96.0528 310.721 95.2688C311.449 94.4848 311.813 93.4302 311.813 92.1048V89.6408C311.813 88.3155 311.449 87.2608 310.721 86.4768C309.993 85.6928 308.985 85.3008 307.697 85.3008C306.652 85.3008 305.774 85.5622 305.065 86.0848C304.356 86.6075 304.001 87.3355 304.001 88.2688V93.4768C304.001 94.4102 304.356 95.1382 305.065 95.6608C305.774 96.1835 306.652 96.4448 307.697 96.4448Z" fill="#FE7193"/>
<path d="M318.13 96.1928H323.17V79.2808H318.13V77.3768H325.41V96.1928H330.45V98.0968H318.13V96.1928Z" fill="#FE7193"/>
<path d="M346.539 98.0968C345.027 98.0968 344.168 97.3128 343.963 95.7448H343.823C343.151 97.5368 341.704 98.4328 339.483 98.4328C337.971 98.4328 336.767 98.0408 335.871 97.2568C334.975 96.4728 334.527 95.3995 334.527 94.0368C334.527 91.2368 336.599 89.8368 340.743 89.8368H343.823V88.4088C343.823 87.3635 343.524 86.5702 342.927 86.0288C342.33 85.4875 341.48 85.2168 340.379 85.2168C338.624 85.2168 337.336 85.9262 336.515 87.3448L335.003 86.2248C335.395 85.4035 336.067 84.7128 337.019 84.1528C337.971 83.5928 339.138 83.3128 340.519 83.3128C342.218 83.3128 343.562 83.7515 344.551 84.6288C345.559 85.4875 346.063 86.6728 346.063 88.1848V95.1288C346.063 95.4088 346.156 95.6515 346.343 95.8568C346.548 96.0435 346.791 96.1368 347.071 96.1368H348.079V98.0968H346.539ZM339.875 96.5568C341.014 96.5568 341.956 96.3048 342.703 95.8008C343.45 95.2782 343.823 94.6435 343.823 93.8968V91.5168H340.743C338.167 91.5168 336.879 92.2448 336.879 93.7008V94.2888C336.879 95.0168 337.14 95.5768 337.663 95.9688C338.204 96.3608 338.942 96.5568 339.875 96.5568Z" fill="#FE7193"/>
<path d="M358.372 98.4328C356.319 98.4328 354.714 97.7515 353.556 96.3888C352.399 95.0262 351.82 93.1875 351.82 90.8728C351.82 88.5582 352.399 86.7195 353.556 85.3568C354.714 83.9942 356.31 83.3128 358.344 83.3128C359.688 83.3128 360.808 83.6115 361.704 84.2088C362.6 84.8062 363.263 85.6182 363.692 86.6448L361.9 87.5968C361.639 86.8502 361.2 86.2715 360.584 85.8608C359.968 85.4502 359.222 85.2448 358.344 85.2448C357.056 85.2448 356.048 85.6555 355.32 86.4768C354.592 87.2795 354.228 88.3342 354.228 89.6408V92.1048C354.228 93.4115 354.592 94.4755 355.32 95.2968C356.048 96.0995 357.075 96.5008 358.4 96.5008C360.23 96.5008 361.536 95.6608 362.32 93.9808L363.916 95.0728C363.468 96.0995 362.778 96.9208 361.844 97.5368C360.911 98.1342 359.754 98.4328 358.372 98.4328Z" fill="#FE7193"/>
<path d="M374.909 98.4328C373.547 98.4328 372.352 98.1248 371.325 97.5088C370.299 96.8928 369.505 96.0155 368.945 94.8768C368.404 93.7382 368.133 92.4128 368.133 90.9008C368.133 89.3888 368.413 88.0635 368.973 86.9248C369.533 85.7675 370.308 84.8808 371.297 84.2648C372.305 83.6302 373.463 83.3128 374.769 83.3128C376.039 83.3128 377.159 83.6208 378.129 84.2368C379.1 84.8342 379.847 85.6648 380.369 86.7288C380.911 87.7928 381.181 89.0062 381.181 90.3688V91.4328H370.485V92.1048C370.485 93.3928 370.887 94.4475 371.689 95.2688C372.492 96.0902 373.565 96.5008 374.909 96.5008C375.861 96.5008 376.692 96.2862 377.401 95.8568C378.111 95.4088 378.661 94.7835 379.053 93.9808L380.705 95.1008C380.257 96.1088 379.52 96.9208 378.493 97.5368C377.485 98.1342 376.291 98.4328 374.909 98.4328ZM374.769 85.1608C373.967 85.1608 373.239 85.3568 372.585 85.7488C371.932 86.1222 371.419 86.6448 371.045 87.3168C370.672 87.9888 370.485 88.7355 370.485 89.5568V89.7528H378.773V89.4448C378.773 88.1755 378.4 87.1488 377.653 86.3648C376.925 85.5622 375.964 85.1608 374.769 85.1608Z" fill="#FE7193"/>
<defs>
<clipPath id="clip0_241_8386">
<rect width="120" height="120" fill="white" transform="translate(-0.000488281)"/>
</clipPath>
<clipPath id="clip1_241_8386">
<rect width="120" height="104.551" fill="white" transform="translate(-0.000488281 8)"/>
</clipPath>
</defs>
</svg>
