<svg width="417" height="120" viewBox="0 0 417 120" fill="none" xmlns="http://www.w3.org/2000/svg">
<g clip-path="url(#clip0_241_8351)">
<g clip-path="url(#clip1_241_8351)">
<path d="M71.6394 31.3465L68.9253 31.1588L68.9459 31.1227C69.0734 30.899 69.2771 30.7285 69.5199 30.6425C69.7627 30.5566 70.0283 30.5608 70.2682 30.6545C70.2682 30.6545 70.8007 30.9015 71.6394 31.3465Z" fill="#FF965A"/>
<path d="M104.546 59.6917C104.546 59.3161 104.546 58.9431 104.523 58.5675C104.524 58.5503 104.524 58.5331 104.523 58.516C104.459 56.5143 104.279 54.5179 103.982 52.5372C103.874 51.7912 103.748 51.0528 103.604 50.3171C103.548 50.0135 103.486 49.7125 103.419 49.4089C103.247 48.6234 103.065 47.8465 102.871 47.0781L101.934 47.2762L100.1 47.6621L94.5202 48.8327L94.4919 48.8635L90.4915 53.1881L87.9857 53.7361L88.0166 53.3168L88.2559 50.1576L83.9647 53.1804L80.9831 55.2797L80.0055 55.4932L81.194 51.7114L80.9728 51.7526L65.1923 54.7471C63.0107 55.2051 58.7196 56.7744 56.8236 57.9475L39.3786 66.8745C38.0046 67.4635 36.5594 67.8701 35.0797 68.0836L17.7608 70.5842L16.9633 70.7L30.5468 58.0041C30.589 57.965 30.6432 57.9412 30.7006 57.9366C30.7579 57.9319 30.8152 57.9466 30.8632 57.9783L37.9559 62.0174L33.6005 55.0507C33.5763 55.007 33.5654 54.9572 33.5691 54.9074C33.5727 54.8576 33.5908 54.81 33.6211 54.7703L37.7373 48.8532C37.7702 48.8112 37.8153 48.7805 37.8665 48.7653C37.9177 48.75 37.9723 48.7511 38.0228 48.7683L46.0263 52.5372L40.9685 44.9351C40.9429 44.8911 40.9309 44.8405 40.9341 44.7896C40.9373 44.7388 40.9556 44.6901 40.9865 44.6496L44.7168 39.8208C44.7484 39.7784 44.7922 39.7468 44.8424 39.7302C44.8926 39.7136 44.9466 39.7129 44.9972 39.7282L53.9834 43.7955L48.4317 35.2158C48.4018 35.1727 48.3858 35.1215 48.3858 35.0691C48.3858 35.0167 48.4018 34.9656 48.4317 34.9225L52.7279 30.6417C52.7504 30.6128 52.7788 30.589 52.8111 30.5719C52.8435 30.5549 52.8791 30.5449 52.9157 30.5427C52.9522 30.5405 52.9887 30.5462 53.0229 30.5592C53.0571 30.5723 53.0881 30.5925 53.1138 30.6185L59.8181 37.225L57.8526 28.4601C57.8486 28.4192 57.8544 28.378 57.8696 28.3398C57.8847 28.3017 57.9088 28.2677 57.9398 28.2408C57.9708 28.2138 58.0077 28.1947 58.0476 28.1849C58.0875 28.1752 58.1291 28.1752 58.169 28.1848L64.189 29.3528L69.077 25.2366C69.1144 25.2054 69.1598 25.1854 69.2081 25.1791C69.2564 25.1727 69.3055 25.1801 69.3497 25.2006L81.1194 30.796C81.1628 30.819 81.2125 30.8272 81.2609 30.8192L93.9517 29.1598L94.2346 29.1238L94.2063 29.0826C89.3468 22.5408 83.0229 17.2277 75.7411 13.5689C68.4593 9.91014 60.4219 8.00733 52.2726 8.01286C23.4 8.01286 -0.00310422 31.4237 -0.00310422 60.2886C-0.0183447 69.6069 2.46942 78.7584 7.20023 86.7866V86.7866C7.24654 86.8715 7.29799 86.9564 7.34687 87.0438C7.75506 87.7299 8.18383 88.4056 8.63318 89.0711V89.0865C9.36038 90.1893 10.1322 91.2621 10.9485 92.3049L11.0257 92.4052C13.7843 95.9412 16.9831 99.1106 20.5444 101.836C29.6536 108.802 40.8077 112.566 52.2752 112.544C53.1782 112.544 54.076 112.521 54.9661 112.477H55.0716C58.7569 112.285 62.4115 111.704 65.9744 110.743C66.1853 110.686 66.3937 110.627 66.6047 110.565C67.5565 110.308 68.4956 109.999 69.4346 109.678C80.0431 105.982 89.1829 98.9742 95.5055 89.6885L95.5981 89.5547C95.6393 89.4904 95.6856 89.4287 95.7268 89.3618C96.4625 88.2607 97.1623 87.1339 97.8157 85.9762L98.0473 85.5646C99.0002 83.8453 99.8548 82.0733 100.607 80.2573C100.823 79.7427 101.029 79.2128 101.23 78.6828C101.229 78.6743 101.229 78.6656 101.23 78.6571C103.43 72.7834 104.555 66.5611 104.548 60.2886C104.551 60.0802 104.551 59.8872 104.546 59.6917ZM74.6801 33.1139C73.5199 32.373 72.4394 31.771 71.6393 31.3466C70.8392 30.9221 70.2681 30.6545 70.2681 30.6545C70.0282 30.5608 69.7626 30.5566 69.5198 30.6426C69.277 30.7285 69.0733 30.899 68.9458 31.1227L68.9252 31.1588L67.4202 33.7931L67.0677 34.4131C67.0081 34.5153 66.9759 34.6312 66.9744 34.7495C66.9728 34.8678 67.002 34.9844 67.059 35.0881C67.116 35.1917 67.1989 35.2789 67.2997 35.3409C67.4004 35.403 67.5155 35.4379 67.6337 35.4422L68.8274 35.4885L71.8348 35.6042L76.2083 35.7766L78.1326 35.8512C78.2306 35.8532 78.3263 35.8218 78.4041 35.7622C78.4819 35.7027 78.5372 35.6184 78.5608 35.5233C78.5845 35.4282 78.5751 35.3279 78.5342 35.2388C78.4933 35.1497 78.4234 35.0772 78.3358 35.0331C77.4534 34.5932 76.8103 34.4723 74.6801 33.1139Z" fill="#A3E9FF"/>
<path d="M16.9583 70.7025L16.9531 70.7L16.9608 70.7025H16.9583Z" fill="#FF965A"/>
<path d="M65.1872 66.1825L64.7087 70.2935L64.2045 74.6284L64.2019 74.6258L64.7061 70.2935L65.1846 66.1773L65.1872 66.1825Z" fill="#FF965A"/>
<path d="M94.245 29.1109L93.962 29.147L81.2712 30.8063C81.2228 30.8143 81.1731 30.8062 81.1297 30.7831L69.36 25.1877C69.3158 25.1673 69.2667 25.1598 69.2184 25.1662C69.1702 25.1726 69.1247 25.1925 69.0873 25.2237L64.1993 29.3399L57.1529 27.166C57.113 27.1564 57.0714 27.1564 57.0315 27.1662C56.9916 27.1759 56.9546 27.1951 56.9236 27.222C56.8927 27.249 56.8686 27.2829 56.8534 27.3211C56.8383 27.3592 56.8324 27.4004 56.8365 27.4413L59.8284 37.2173L53.1242 30.6108C53.0984 30.5848 53.0674 30.5646 53.0333 30.5515C52.9991 30.5384 52.9625 30.5328 52.926 30.535C52.8895 30.5372 52.8538 30.5472 52.8215 30.5642C52.7891 30.5813 52.7607 30.605 52.7383 30.6339L48.442 34.9148C48.4121 34.9578 48.3961 35.009 48.3961 35.0614C48.3961 35.1138 48.4121 35.165 48.442 35.208L53.9937 43.7877L45.0075 39.7204C44.957 39.7052 44.9029 39.7059 44.8527 39.7225C44.8026 39.7391 44.7587 39.7707 44.7271 39.813L40.9968 44.6419C40.9659 44.6823 40.9477 44.7311 40.9445 44.7819C40.9412 44.8327 40.9532 44.8834 40.9788 44.9274L46.0366 52.5295L38.0332 48.7606C37.9826 48.7434 37.928 48.7423 37.8768 48.7575C37.8257 48.7727 37.7805 48.8035 37.7476 48.8455L33.6314 54.7626C33.6011 54.8023 33.5831 54.8499 33.5794 54.8997C33.5758 54.9495 33.5867 54.9993 33.6108 55.043L37.9663 62.0096L30.8736 57.9706C30.8255 57.9389 30.7683 57.9242 30.7109 57.9288C30.6535 57.9335 30.5994 57.9573 30.5571 57.9963L16.9634 70.6999L17.7609 70.5842L35.0798 68.0836C36.5594 67.87 38.0047 67.4635 39.3786 66.8744L56.8262 57.932C58.7222 56.7589 63.0133 55.1896 65.1949 54.7317L80.9754 51.7371L81.1966 51.696L81.2198 51.6214L78.4156 36.6822L87.3452 38.1949L93.0358 39.2805L94.5048 38.9847L99.5549 37.9556C98.0826 34.8386 96.3039 31.8757 94.245 29.1109V29.1109ZM78.1378 35.8435L76.2135 35.7689L71.84 35.5965L68.8326 35.4807L67.6389 35.4344C67.5207 35.4301 67.4056 35.3953 67.3049 35.3332C67.2041 35.2711 67.1212 35.184 67.0642 35.0804C67.0072 34.9767 66.978 34.86 66.9796 34.7417C66.9811 34.6234 67.0133 34.5075 67.0729 34.4054L67.4254 33.7854L68.9227 31.151L68.9432 31.115C69.0707 30.8912 69.2745 30.7208 69.5173 30.6348C69.76 30.5488 70.0257 30.5531 70.2656 30.6468C70.2656 30.6468 70.7981 30.904 71.6368 31.3388C72.4754 31.7736 73.5174 32.3679 74.6776 33.1062C76.8077 34.4646 77.438 34.5778 78.3385 35.0177C78.4305 35.059 78.5052 35.1313 78.5496 35.2219C78.5939 35.3126 78.6052 35.4159 78.5813 35.514C78.5575 35.612 78.5001 35.6987 78.4191 35.7589C78.3381 35.8191 78.2386 35.849 78.1378 35.8435V35.8435Z" fill="#FF965A"/>
<path d="M78.1378 35.8435L76.2134 35.7689L71.84 35.5965L68.8326 35.4808L67.6389 35.4345C67.5207 35.4301 67.4056 35.3953 67.3048 35.3332C67.2041 35.2711 67.1212 35.184 67.0642 35.0804C67.0072 34.9767 66.978 34.86 66.9795 34.7417C66.9811 34.6234 67.0133 34.5076 67.0729 34.4054L67.4254 33.7854L68.9226 31.151L68.9432 31.115C69.0707 30.8912 69.2745 30.7208 69.5173 30.6348C69.76 30.5489 70.0256 30.5531 70.2655 30.6468C70.2655 30.6468 70.7981 30.9041 71.6368 31.3388C72.4754 31.7736 73.5173 32.3679 74.6776 33.1062C76.8077 34.4646 77.438 34.5778 78.3384 35.0177C78.4305 35.059 78.5052 35.1313 78.5496 35.222C78.5939 35.3126 78.6052 35.4159 78.5813 35.514C78.5575 35.6121 78.5001 35.6987 78.4191 35.7589C78.3381 35.8191 78.2385 35.849 78.1378 35.8435V35.8435Z" fill="#FF965A"/>
<path d="M119.971 42.7896L118.502 45.9642L118.476 46.0362L118.273 46.6048L118.165 43.0545L117.193 43.1909L112.305 44.6907L110.599 49.6971L108.127 45.4651L102.022 47.0087L101.945 47.2428L99.9253 53.4171L96.1487 48.4751L94.5022 48.8198L88.9273 50.0289L88.0012 53.3013L86.6763 58.0272L83.9519 53.1521L83.0695 51.5725C83.033 51.507 82.9768 51.4546 82.909 51.4228C82.8411 51.3909 82.765 51.3812 82.6913 51.395L81.1812 51.6831L81.2043 51.6085L78.4001 36.6693L87.3452 38.1949L93.0358 39.2805L94.5048 38.9847L99.5548 37.9556C98.0802 34.8328 96.298 31.8647 94.2346 29.0955L102.874 27.9635C103.133 27.9289 103.397 27.9462 103.65 28.0142C103.903 28.0822 104.14 28.1996 104.348 28.3597L108.273 31.3671L108.338 31.4031L117.599 34.6755C117.818 34.7524 118.014 34.884 118.168 35.0578C118.322 35.2316 118.429 35.4418 118.479 35.6685L119.945 42.2673C120.006 42.4348 120.015 42.6169 119.971 42.7896V42.7896Z" fill="#FF965A"/>
<path d="M108.111 45.4908L110.584 49.7228L99.9742 54.1117L80.9831 60.7902L80.9651 51.7372L82.9486 51.3616L86.6815 58.0401L88.9274 50.0264L96.1333 48.5137L99.9099 53.4557L102.007 47.037L108.111 45.4908Z" fill="#FF965A"/>
<path d="M72.2593 63.2342L65.1871 66.1825L65.1846 66.1773L72.2593 63.2342Z" fill="#181818"/>
<path d="M118.263 43.0134V46.6305L115.582 52.5475C115.39 52.9722 115.056 53.3169 114.638 53.5226L104.52 58.5186L90.0335 65.6499C90.0161 65.6589 90.0009 65.6715 89.9887 65.6868C89.9765 65.7021 89.9677 65.7198 89.9629 65.7387C89.958 65.7577 89.9572 65.7774 89.9605 65.7967C89.9638 65.816 89.9712 65.8343 89.982 65.8506L92.3746 69.1744L95.0064 72.8481L99.5779 79.2668L98.9039 79.5241L95.6418 77.6744L94.888 74.3814L93.1078 76.2337L86.2183 72.1535L86.2569 71.9503L87.0878 67.4636L83.2443 70.0362L83.072 70.152L75.138 65.0659L75.1817 64.9244L75.7246 63.1725L76.2802 61.3716L72.2695 63.2342L66.0952 66.5786L65.838 74.3145L67.6388 76.5913L59.6843 82.089L47.9968 78.4873L31.2902 84.2011L23.9274 87.5892L10.9408 92.2791C10.1295 91.2364 9.35776 90.1636 8.62542 89.0608V89.0453L7.20532 86.766C7.21402 86.6788 7.23126 86.5926 7.25678 86.5087C7.79188 84.7079 9.92201 78.9066 16.9581 70.7128L17.7557 70.5971L35.0746 68.0965C36.5542 67.8829 37.9994 67.4764 39.3734 66.8873L56.8209 57.9449C58.7169 56.7718 63.0081 55.2025 65.1897 54.7446L80.9701 51.75L81.1914 51.7089L82.7144 51.4207H82.735L82.9536 51.377L83.054 51.5597L83.9621 53.1804L86.6865 58.0555L88.0011 53.3142L88.8707 50.227C88.8841 50.1802 88.9083 50.1372 88.9414 50.1015C88.9744 50.0657 89.0154 50.0382 89.061 50.0212H89.1022L94.4764 48.8918L95.8399 48.6063C95.9231 48.5897 96.0092 48.5966 96.0887 48.6261C96.1682 48.6557 96.2379 48.7067 96.2901 48.7735V48.7735L99.8918 53.484L101.911 47.3097C101.936 47.2374 101.978 47.1723 102.034 47.1207C102.09 47.069 102.159 47.0322 102.233 47.0138L107.849 45.5912C107.919 45.5731 107.992 45.5784 108.059 45.6063C108.125 45.6342 108.181 45.6831 108.217 45.7455L110.563 49.7614L111.96 44.8477C111.982 44.7694 112.025 44.6981 112.082 44.6405C112.14 44.5829 112.211 44.5409 112.289 44.5184L117.01 43.1575C117.089 43.1347 117.17 43.1184 117.252 43.1086L118.178 42.9954C118.184 42.9903 118.192 42.9867 118.2 42.9848C118.208 42.9829 118.217 42.9829 118.225 42.9846C118.233 42.9863 118.24 42.9898 118.247 42.9947C118.254 42.9997 118.259 43.0061 118.263 43.0134V43.0134Z" fill="#713717"/>
<path d="M95.6393 77.6589V77.6615L95.5698 77.6229L95.6393 77.6589Z" fill="#7A482C"/>
<path d="M98.9092 79.5189L95.6394 77.6615L98.9041 79.5138L98.9092 79.5189Z" fill="#7A482C"/>
<path d="M96.6351 68.6496L94.9989 72.8507L92.3645 69.1744L96.6351 68.6496Z" fill="#7A482C"/>
<path d="M65.1872 66.1825L64.7087 70.2935L65.1847 66.1773L65.1872 66.1825Z" fill="#7A482C"/>
<path d="M104.482 82.6832L102.681 89.3566C102.635 89.5271 102.535 89.6779 102.396 89.7858C102.256 89.8937 102.085 89.9526 101.909 89.9535H96.9154C96.3318 89.9538 95.7554 89.8247 95.2278 89.5753L67.6416 76.5939L64.8966 75.0245C64.6913 74.9068 64.5251 74.7315 64.4186 74.5202C64.3121 74.3089 64.2698 74.071 64.2972 73.836L65.105 66.8616C65.1292 66.6549 65.2073 66.4582 65.3315 66.2911C65.4557 66.1241 65.6215 65.9926 65.8124 65.9097L76.2676 61.3716L75.1691 64.9244C75.1562 64.9639 75.1568 65.0065 75.1708 65.0456C75.1848 65.0847 75.2113 65.1181 75.2462 65.1405L82.8998 70.0285C82.9508 70.0613 83.0102 70.0787 83.0709 70.0787C83.1315 70.0787 83.1909 70.0613 83.242 70.0285L87.1009 67.4559L86.2674 71.9451C86.2569 72.0038 86.2646 72.0644 86.2894 72.1186C86.3142 72.1728 86.355 72.2182 86.4063 72.2487L93.1131 76.2208L94.8959 74.3659L95.6471 77.6512C95.6471 77.6512 95.6471 77.6512 95.6471 77.6666L98.9015 79.5138H98.9169L99.591 79.2565L103.826 77.6512L104.482 82.6832Z" fill="#FF965A"/>
<path d="M16.9583 70.7025L16.9531 70.7L16.9608 70.7025H16.9583Z" fill="#FF965A"/>
<path d="M31.2877 84.2165L31.2852 84.2191V84.2165H31.2877Z" fill="#FF965A"/>
<path d="M65.1872 66.1825L64.2045 74.6284L64.2019 74.6258L65.1846 66.1773L65.1872 66.1825Z" fill="#FF965A"/>
<path d="M78.1378 35.8435L76.2134 35.7689L71.84 35.5965L68.8326 35.4808L67.6389 35.4345C67.5207 35.4301 67.4056 35.3953 67.3048 35.3332C67.2041 35.2711 67.1212 35.184 67.0642 35.0804C67.0072 34.9767 66.978 34.86 66.9795 34.7417C66.9811 34.6234 67.0133 34.5076 67.0729 34.4054L67.4254 33.7854L68.9226 31.151L68.9432 31.115C69.0707 30.8912 69.2745 30.7208 69.5173 30.6348C69.76 30.5489 70.0256 30.5531 70.2655 30.6468C70.2655 30.6468 70.7981 30.9041 71.6368 31.3388C72.4754 31.7736 73.5173 32.3679 74.6776 33.1062C76.8077 34.4646 77.438 34.5778 78.3384 35.0177C78.4305 35.059 78.5052 35.1313 78.5496 35.222C78.5939 35.3126 78.6052 35.4159 78.5813 35.514C78.5575 35.6121 78.5001 35.6987 78.4191 35.7589C78.3381 35.8191 78.2385 35.849 78.1378 35.8435V35.8435Z" fill="#7A482C"/>
<path d="M68.0761 110.115C67.5891 110.271 67.0985 110.42 66.6046 110.563C66.3936 110.625 66.1853 110.684 65.9743 110.74C62.4116 111.703 58.757 112.286 55.0715 112.479V112.479H54.9661C54.0734 112.523 53.1652 112.546 52.2751 112.546C40.8056 112.564 29.6513 108.793 20.5444 101.821C16.983 99.0952 13.7842 95.9258 11.0257 92.3897L10.9485 92.2894L23.9274 87.5892L31.2825 84.214L46.4352 77.2679C46.8912 77.0569 47.3876 76.9477 47.8901 76.9477C48.3925 76.9477 48.8889 77.0569 49.3449 77.2679L59.6765 82.0915V95.3611C59.6758 96.699 60.0862 98.0048 60.8522 99.1017L64.1966 103.9L68.4234 108.873C68.5075 108.969 68.5663 109.085 68.5946 109.21C68.6228 109.334 68.6195 109.464 68.5851 109.588C68.5506 109.711 68.4861 109.824 68.3972 109.916C68.3084 110.008 68.1981 110.076 68.0761 110.115V110.115Z" fill="#FF965A"/>
<path d="M65.1872 66.1825L64.2045 74.6284L64.2019 74.6258L65.1846 66.1773L65.1872 66.1825Z" fill="#7A482C"/>
<path d="M16.9583 70.7025L16.9531 70.7L16.9608 70.7025H16.9583Z" fill="#7A482C"/>
<path d="M116.763 40.4073C116.755 40.4307 116.74 40.4512 116.721 40.4661C116.701 40.4811 116.677 40.49 116.653 40.4917C116.628 40.4933 116.603 40.4876 116.582 40.4754C116.56 40.4631 116.543 40.4448 116.532 40.4228C115.616 37.1041 114.906 36.2654 111.067 35.0023C110.934 34.9559 110.949 34.8042 111.093 34.8067C112.699 34.8402 115.13 35.419 115.948 36.2062C116.977 37.1967 116.954 39.3371 116.763 40.4073Z" fill="#7A482C"/>
</g>
</g>
<path fill-rule="evenodd" clip-rule="evenodd" d="M239.72 35.2816C239.72 47.8249 243.959 54.0966 252.438 54.0966C260.916 54.0966 265.155 47.8249 265.155 35.2816C265.155 22.7382 260.916 16.4665 252.438 16.4665C243.959 16.4665 239.72 22.7382 239.72 35.2816ZM258.535 47.1648C257.25 49.2495 255.217 50.2919 252.438 50.2919C251.106 50.2919 249.942 50.0527 248.945 49.5742L259.153 24.5929C260.062 26.5679 260.516 29.1405 260.516 32.3108V38.2524C260.516 42.0744 259.856 45.0452 258.535 47.1648ZM256.232 21.1669L245.898 46.4567C244.872 44.4012 244.359 41.6664 244.359 38.2524V32.3108C244.359 28.4887 245.002 25.5353 246.287 23.4505C247.608 21.331 249.658 20.2712 252.438 20.2712C253.913 20.2712 255.178 20.5698 256.232 21.1669ZM158.163 17.092H148V53.4712H158.163C162.576 53.4712 165.876 51.9423 168.065 48.8847C170.289 45.827 171.401 41.2927 171.401 35.2816C171.401 29.2705 170.289 24.7361 168.065 21.6784C165.876 18.6208 162.576 17.092 158.163 17.092ZM164.469 46.6436C162.975 48.6588 160.803 49.6665 157.954 49.6665H152.378V20.8967H157.954C160.803 20.8967 162.975 21.9043 164.469 23.9196C165.998 25.9348 166.762 28.784 166.762 32.4671V38.096C166.762 41.7791 165.998 44.6283 164.469 46.6436ZM178.677 49.9792V53.4712H201.193V49.9792H192.124V20.5839H201.193V17.092H178.677V20.5839H187.746V49.9792H178.677ZM214.046 22.6687H213.681V53.4712H209.72V17.092H215.922L228.327 47.5817H228.691V17.092H232.653V53.4712H226.45L214.046 22.6687Z" fill="white"/>
<path d="M303.517 36.9496H289.341V53.4714H284.963V17.0922H289.341V33.1449H303.517V17.0922H307.895V53.4714H303.517V36.9496Z" fill="white"/>
<path d="M334.039 49.0934H333.83C332.406 52.429 329.852 54.0968 326.169 54.0968C323.319 54.0968 321.044 53.1934 319.341 51.3866C317.673 49.5798 316.839 47.0607 316.839 43.8293V26.5779H321.009V43.0997C321.009 45.5319 321.547 47.3561 322.625 48.5722C323.702 49.7883 325.283 50.3964 327.367 50.3964C329.209 50.3964 330.772 49.962 332.058 49.0934C333.378 48.19 334.039 46.9044 334.039 45.2366V26.5779H338.208V53.4714H334.039V49.0934Z" fill="white"/>
<path d="M348.247 14.9032H352.416V30.9559H352.625C354.362 27.6203 357.124 25.9524 360.912 25.9524C364.213 25.9524 366.784 27.2033 368.625 29.705C370.502 32.172 371.44 35.6119 371.44 40.0246C371.44 44.4374 370.502 47.8946 368.625 50.3964C366.784 52.8633 364.213 54.0968 360.912 54.0968C357.124 54.0968 354.362 52.429 352.625 49.0934H352.416V53.4714H348.247V14.9032ZM359.296 50.3964C361.694 50.3964 363.57 49.6667 364.925 48.2074C366.28 46.748 366.958 44.7849 366.958 42.3179V37.7314C366.958 35.2644 366.28 33.3013 364.925 31.8419C363.57 30.3826 361.694 29.6529 359.296 29.6529C357.35 29.6529 355.717 30.1394 354.397 31.1122C353.077 32.0851 352.416 33.4402 352.416 35.1776V44.8717C352.416 46.609 353.077 47.9641 354.397 48.937C355.717 49.9099 357.35 50.3964 359.296 50.3964Z" fill="white"/>
<path d="M150.659 78.5528H156.119C158.49 78.5528 160.263 79.3742 161.439 81.0168C162.634 82.6595 163.231 85.0955 163.231 88.3248C163.231 91.5542 162.634 93.9902 161.439 95.6328C160.263 97.2755 158.49 98.0968 156.119 98.0968H150.659V78.5528ZM156.007 96.0528C157.538 96.0528 158.705 95.5115 159.507 94.4288C160.329 93.3462 160.739 91.8155 160.739 89.8368V86.8128C160.739 84.8342 160.329 83.3035 159.507 82.2208C158.705 81.1382 157.538 80.5968 156.007 80.5968H153.011V96.0528H156.007Z" fill="#FF9B63"/>
<path d="M178.648 98.0968C177.136 98.0968 176.278 97.3128 176.072 95.7448H175.932C175.26 97.5368 173.814 98.4328 171.592 98.4328C170.08 98.4328 168.876 98.0408 167.98 97.2568C167.084 96.4728 166.636 95.3995 166.636 94.0368C166.636 91.2368 168.708 89.8368 172.852 89.8368H175.932V88.4088C175.932 87.3635 175.634 86.5702 175.036 86.0288C174.439 85.4875 173.59 85.2168 172.488 85.2168C170.734 85.2168 169.446 85.9262 168.624 87.3448L167.112 86.2248C167.504 85.4035 168.176 84.7128 169.128 84.1528C170.08 83.5928 171.247 83.3128 172.628 83.3128C174.327 83.3128 175.671 83.7515 176.66 84.6288C177.668 85.4875 178.172 86.6728 178.172 88.1848V95.1288C178.172 95.4088 178.266 95.6515 178.452 95.8568C178.658 96.0435 178.9 96.1368 179.18 96.1368H180.188V98.0968H178.648ZM171.984 96.5568C173.123 96.5568 174.066 96.3048 174.812 95.8008C175.559 95.2782 175.932 94.6435 175.932 93.8968V91.5168H172.852C170.276 91.5168 168.988 92.2448 168.988 93.7008V94.2888C168.988 95.0168 169.25 95.5768 169.772 95.9688C170.314 96.3608 171.051 96.5568 171.984 96.5568Z" fill="#FF9B63"/>
<path d="M189.726 93.2808C189.726 94.1768 189.866 94.8395 190.146 95.2688C190.426 95.6795 190.827 95.9408 191.35 96.0528C191.891 96.1462 192.694 96.1928 193.758 96.1928H195.522V98.0968H193.786C192.311 98.0968 191.126 97.9755 190.23 97.7328C189.352 97.4715 188.671 96.9862 188.186 96.2768C187.719 95.5675 187.486 94.5595 187.486 93.2528V85.5528H182.67V83.6488H187.486V78.5528H189.726V83.6488H196.306V85.5528H189.726V93.2808Z" fill="#FF9B63"/>
<path d="M212.227 98.0968C210.715 98.0968 209.856 97.3128 209.651 95.7448H209.511C208.839 97.5368 207.392 98.4328 205.171 98.4328C203.659 98.4328 202.455 98.0408 201.559 97.2568C200.663 96.4728 200.215 95.3995 200.215 94.0368C200.215 91.2368 202.287 89.8368 206.431 89.8368H209.511V88.4088C209.511 87.3635 209.212 86.5702 208.615 86.0288C208.017 85.4875 207.168 85.2168 206.067 85.2168C204.312 85.2168 203.024 85.9262 202.203 87.3448L200.691 86.2248C201.083 85.4035 201.755 84.7128 202.707 84.1528C203.659 83.5928 204.825 83.3128 206.207 83.3128C207.905 83.3128 209.249 83.7515 210.239 84.6288C211.247 85.4875 211.751 86.6728 211.751 88.1848V95.1288C211.751 95.4088 211.844 95.6515 212.031 95.8568C212.236 96.0435 212.479 96.1368 212.759 96.1368H213.767V98.0968H212.227ZM205.563 96.5568C206.701 96.5568 207.644 96.3048 208.391 95.8008C209.137 95.2782 209.511 94.6435 209.511 93.8968V91.5168H206.431C203.855 91.5168 202.567 92.2448 202.567 93.7008V94.2888C202.567 95.0168 202.828 95.5768 203.351 95.9688C203.892 96.3608 204.629 96.5568 205.563 96.5568Z" fill="#FF9B63"/>
<path d="M244.685 82.1088H244.461L240.345 92.1608L236.229 82.1088H236.005V98.0968H233.849V78.5528H236.873L240.317 87.1768H240.485L243.929 78.5528H246.841V98.0968H244.685V82.1088Z" fill="#FF9B63"/>
<path d="M262.594 98.0968C261.082 98.0968 260.223 97.3128 260.018 95.7448H259.878C259.206 97.5368 257.759 98.4328 255.538 98.4328C254.026 98.4328 252.822 98.0408 251.926 97.2568C251.03 96.4728 250.582 95.3995 250.582 94.0368C250.582 91.2368 252.654 89.8368 256.798 89.8368H259.878V88.4088C259.878 87.3635 259.579 86.5702 258.982 86.0288C258.384 85.4875 257.535 85.2168 256.434 85.2168C254.679 85.2168 253.391 85.9262 252.57 87.3448L251.058 86.2248C251.45 85.4035 252.122 84.7128 253.074 84.1528C254.026 83.5928 255.192 83.3128 256.574 83.3128C258.272 83.3128 259.616 83.7515 260.606 84.6288C261.614 85.4875 262.118 86.6728 262.118 88.1848V95.1288C262.118 95.4088 262.211 95.6515 262.398 95.8568C262.603 96.0435 262.846 96.1368 263.126 96.1368H264.134V98.0968H262.594ZM255.93 96.5568C257.068 96.5568 258.011 96.3048 258.758 95.8008C259.504 95.2782 259.878 94.6435 259.878 93.8968V91.5168H256.798C254.222 91.5168 252.934 92.2448 252.934 93.7008V94.2888C252.934 95.0168 253.195 95.5768 253.718 95.9688C254.259 96.3608 254.996 96.5568 255.93 96.5568Z" fill="#FF9B63"/>
<path d="M267.679 96.1928H271.907V85.5528H267.679V83.6488H274.147V87.2888H274.287C274.996 84.8622 276.62 83.6488 279.159 83.6488H281.175V85.8888H278.459C277.096 85.8888 276.032 86.2715 275.267 87.0368C274.52 87.8022 274.147 88.7728 274.147 89.9488V96.1928H279.747V98.0968H267.679V96.1928Z" fill="#FF9B63"/>
<path d="M285.252 77.3768H287.492V90.4528H287.604L290.124 88.0728L294.94 83.6488H297.684L291.692 89.3048L298.384 98.0968H295.612L289.984 90.5928L287.492 92.8608V98.0968H285.252V77.3768Z" fill="#FF9B63"/>
<path d="M307.753 98.4328C306.39 98.4328 305.196 98.1248 304.169 97.5088C303.142 96.8928 302.349 96.0155 301.789 94.8768C301.248 93.7382 300.977 92.4128 300.977 90.9008C300.977 89.3888 301.257 88.0635 301.817 86.9248C302.377 85.7675 303.152 84.8808 304.141 84.2648C305.149 83.6302 306.306 83.3128 307.613 83.3128C308.882 83.3128 310.002 83.6208 310.973 84.2368C311.944 84.8342 312.69 85.6648 313.213 86.7288C313.754 87.7928 314.025 89.0062 314.025 90.3688V91.4328H303.329V92.1048C303.329 93.3928 303.73 94.4475 304.533 95.2688C305.336 96.0902 306.409 96.5008 307.753 96.5008C308.705 96.5008 309.536 96.2862 310.245 95.8568C310.954 95.4088 311.505 94.7835 311.897 93.9808L313.549 95.1008C313.101 96.1088 312.364 96.9208 311.337 97.5368C310.329 98.1342 309.134 98.4328 307.753 98.4328ZM307.613 85.1608C306.81 85.1608 306.082 85.3568 305.429 85.7488C304.776 86.1222 304.262 86.6448 303.889 87.3168C303.516 87.9888 303.329 88.7355 303.329 89.5568V89.7528H311.617V89.4448C311.617 88.1755 311.244 87.1488 310.497 86.3648C309.769 85.5622 308.808 85.1608 307.613 85.1608Z" fill="#FF9B63"/>
<path d="M324.038 93.2808C324.038 94.1768 324.178 94.8395 324.458 95.2688C324.738 95.6795 325.139 95.9408 325.662 96.0528C326.203 96.1462 327.006 96.1928 328.07 96.1928H329.834V98.0968H328.098C326.623 98.0968 325.438 97.9755 324.542 97.7328C323.665 97.4715 322.983 96.9862 322.498 96.2768C322.031 95.5675 321.798 94.5595 321.798 93.2528V85.5528H316.982V83.6488H321.798V78.5528H324.038V83.6488H330.618V85.5528H324.038V93.2808Z" fill="#FF9B63"/>
<path d="M335.339 83.6488H337.579V86.0008H337.691C338.624 84.2088 340.108 83.3128 342.143 83.3128C343.916 83.3128 345.298 83.9848 346.287 85.3288C347.295 86.6542 347.799 88.5022 347.799 90.8728C347.799 93.2435 347.295 95.1008 346.287 96.4448C345.298 97.7702 343.916 98.4328 342.143 98.4328C340.108 98.4328 338.624 97.5368 337.691 95.7448H337.579V103.697H335.339V83.6488ZM341.275 96.4448C342.563 96.4448 343.571 96.0528 344.299 95.2688C345.027 94.4848 345.391 93.4302 345.391 92.1048V89.6408C345.391 88.3155 345.027 87.2608 344.299 86.4768C343.571 85.6928 342.563 85.3008 341.275 85.3008C340.23 85.3008 339.352 85.5622 338.643 86.0848C337.934 86.6075 337.579 87.3355 337.579 88.2688V93.4768C337.579 94.4102 337.934 95.1382 338.643 95.6608C339.352 96.1835 340.23 96.4448 341.275 96.4448Z" fill="#FF9B63"/>
<path d="M351.708 96.1928H356.748V79.2808H351.708V77.3768H358.988V96.1928H364.028V98.0968H351.708V96.1928Z" fill="#FF9B63"/>
<path d="M380.117 98.0968C378.605 98.0968 377.747 97.3128 377.541 95.7448H377.401C376.729 97.5368 375.283 98.4328 373.061 98.4328C371.549 98.4328 370.345 98.0408 369.449 97.2568C368.553 96.4728 368.105 95.3995 368.105 94.0368C368.105 91.2368 370.177 89.8368 374.321 89.8368H377.401V88.4088C377.401 87.3635 377.103 86.5702 376.505 86.0288C375.908 85.4875 375.059 85.2168 373.957 85.2168C372.203 85.2168 370.915 85.9262 370.093 87.3448L368.581 86.2248C368.973 85.4035 369.645 84.7128 370.597 84.1528C371.549 83.5928 372.716 83.3128 374.097 83.3128C375.796 83.3128 377.14 83.7515 378.129 84.6288C379.137 85.4875 379.641 86.6728 379.641 88.1848V95.1288C379.641 95.4088 379.735 95.6515 379.921 95.8568C380.127 96.0435 380.369 96.1368 380.649 96.1368H381.657V98.0968H380.117ZM373.453 96.5568C374.592 96.5568 375.535 96.3048 376.281 95.8008C377.028 95.2782 377.401 94.6435 377.401 93.8968V91.5168H374.321C371.745 91.5168 370.457 92.2448 370.457 93.7008V94.2888C370.457 95.0168 370.719 95.5768 371.241 95.9688C371.783 96.3608 372.52 96.5568 373.453 96.5568Z" fill="#FF9B63"/>
<path d="M391.95 98.4328C389.897 98.4328 388.292 97.7515 387.134 96.3888C385.977 95.0262 385.398 93.1875 385.398 90.8728C385.398 88.5582 385.977 86.7195 387.134 85.3568C388.292 83.9942 389.888 83.3128 391.922 83.3128C393.266 83.3128 394.386 83.6115 395.282 84.2088C396.178 84.8062 396.841 85.6182 397.27 86.6448L395.478 87.5968C395.217 86.8502 394.778 86.2715 394.162 85.8608C393.546 85.4502 392.8 85.2448 391.922 85.2448C390.634 85.2448 389.626 85.6555 388.898 86.4768C388.17 87.2795 387.806 88.3342 387.806 89.6408V92.1048C387.806 93.4115 388.17 94.4755 388.898 95.2968C389.626 96.0995 390.653 96.5008 391.978 96.5008C393.808 96.5008 395.114 95.6608 395.898 93.9808L397.494 95.0728C397.046 96.0995 396.356 96.9208 395.422 97.5368C394.489 98.1342 393.332 98.4328 391.95 98.4328Z" fill="#FF9B63"/>
<path d="M408.487 98.4328C407.125 98.4328 405.93 98.1248 404.903 97.5088C403.877 96.8928 403.083 96.0155 402.523 94.8768C401.982 93.7382 401.711 92.4128 401.711 90.9008C401.711 89.3888 401.991 88.0635 402.551 86.9248C403.111 85.7675 403.886 84.8808 404.875 84.2648C405.883 83.6302 407.041 83.3128 408.347 83.3128C409.617 83.3128 410.737 83.6208 411.707 84.2368C412.678 84.8342 413.425 85.6648 413.947 86.7288C414.489 87.7928 414.759 89.0062 414.759 90.3688V91.4328H404.063V92.1048C404.063 93.3928 404.465 94.4475 405.267 95.2688C406.07 96.0902 407.143 96.5008 408.487 96.5008C409.439 96.5008 410.27 96.2862 410.979 95.8568C411.689 95.4088 412.239 94.7835 412.631 93.9808L414.283 95.1008C413.835 96.1088 413.098 96.9208 412.071 97.5368C411.063 98.1342 409.869 98.4328 408.487 98.4328ZM408.347 85.1608C407.545 85.1608 406.817 85.3568 406.163 85.7488C405.51 86.1222 404.997 86.6448 404.623 87.3168C404.25 87.9888 404.063 88.7355 404.063 89.5568V89.7528H412.351V89.4448C412.351 88.1755 411.978 87.1488 411.231 86.3648C410.503 85.5622 409.542 85.1608 408.347 85.1608Z" fill="#FF9B63"/>
<defs>
<clipPath id="clip0_241_8351">
<rect width="120" height="120" fill="white" transform="translate(-0.000488281)"/>
</clipPath>
<clipPath id="clip1_241_8351">
<rect width="120" height="104.551" fill="white" transform="translate(-0.000488281 8)"/>
</clipPath>
</defs>
</svg>
