<svg id="Layer_1" data-name="Layer 1" xmlns="http://www.w3.org/2000/svg" xmlns:xlink="http://www.w3.org/1999/xlink" viewBox="0 0 371.44 104.53"><defs><style>.cls-1{fill:none;}.cls-2{clip-path:url(#clip-path);}.cls-3{clip-path:url(#clip-path-2);}.cls-4,.cls-8{fill:#b477ff;}.cls-5{fill:#ffeca9;}.cls-6{fill:#181818;}.cls-7{fill:#4e2c7a;}.cls-8{fill-rule:evenodd;}</style><clipPath id="clip-path" transform="translate(0 -8.01)"><rect class="cls-1" width="120" height="120"/></clipPath><clipPath id="clip-path-2" transform="translate(0 -8.01)"><rect class="cls-1" y="8" width="120" height="104.55"/></clipPath></defs><g class="cls-2"><g class="cls-3"><path class="cls-4" d="M71.64,31.35l-2.71-.19,0,0a1.08,1.08,0,0,1,.57-.48,1.14,1.14,0,0,1,.75,0S70.8,30.9,71.64,31.35Z" transform="translate(0 -8.01)"/><path class="cls-5" d="M104.55,59.69c0-.37,0-.75,0-1.12v0a49.76,49.76,0,0,0-.54-6c-.11-.75-.23-1.49-.38-2.22,0-.31-.11-.61-.18-.91-.17-.79-.35-1.56-.55-2.33l-.94.2-1.83.38-5.58,1.17,0,0-4,4.33-2.5.55,0-.42.24-3.16-4.3,3-3,2.1-1,.21,1.18-3.78-.22,0-15.78,3A34.79,34.79,0,0,0,56.82,58L39.38,66.87a17,17,0,0,1-4.3,1.21l-17.32,2.5-.8.12L30.55,58a.25.25,0,0,1,.15-.06.22.22,0,0,1,.16,0L38,62l-4.36-7a.32.32,0,0,1,0-.14.24.24,0,0,1,0-.14l4.12-5.92a.22.22,0,0,1,.13-.08.2.2,0,0,1,.15,0l8,3.77L41,44.94a.28.28,0,0,1,0-.15.35.35,0,0,1,.06-.14l3.73-4.83a.27.27,0,0,1,.12-.09.22.22,0,0,1,.16,0l9,4.07-5.55-8.58a.3.3,0,0,1,0-.3l4.3-4.28a.27.27,0,0,1,.08-.07.2.2,0,0,1,.11,0l.1,0a.15.15,0,0,1,.09.06l6.71,6.6-2-8.76a.25.25,0,0,1,0-.12.23.23,0,0,1,.07-.1.24.24,0,0,1,.11-.06h.12l6,1.17,4.89-4.11a.26.26,0,0,1,.13-.06.22.22,0,0,1,.14,0l11.77,5.6a.22.22,0,0,0,.14,0L94,29.16l.28,0,0,0a52.28,52.28,0,0,0-87,57.71h0l.15.25c.41.69.83,1.37,1.28,2v0c.73,1.1,1.5,2.17,2.32,3.21l.08.11a52.73,52.73,0,0,0,9.51,9.43,52.07,52.07,0,0,0,31.74,10.7c.9,0,1.8,0,2.69-.06h.1A52.16,52.16,0,0,0,66,110.74l.63-.17c1-.26,1.9-.57,2.83-.89a52.5,52.5,0,0,0,26.08-20l.09-.14c0-.06.09-.12.13-.19.73-1.1,1.43-2.23,2.09-3.38l.23-.42a53.86,53.86,0,0,0,2.56-5.3c.21-.52.42-1.05.62-1.58v0a52.18,52.18,0,0,0,3.32-18.37ZM74.68,33.11c-1.16-.74-2.24-1.34-3-1.76s-1.37-.7-1.37-.7a1.14,1.14,0,0,0-.75,0,1.08,1.08,0,0,0-.57.48l0,0-1.51,2.63-.35.62a.83.83,0,0,0-.1.34.69.69,0,0,0,.09.34.72.72,0,0,0,.24.25.67.67,0,0,0,.33.1l1.2.05,3,.11,4.38.18,1.92.07a.42.42,0,0,0,.27-.09.4.4,0,0,0,.16-.24.39.39,0,0,0,0-.28.48.48,0,0,0-.19-.21A22.08,22.08,0,0,1,74.68,33.11Z" transform="translate(0 -8.01)"/><path class="cls-4" d="M17,70.7h0Z" transform="translate(0 -8.01)"/><path class="cls-4" d="M65.19,66.18l-.48,4.11-.51,4.34h0l.51-4.34.47-4.11Z" transform="translate(0 -8.01)"/><path class="cls-4" d="M94.25,29.11l-.29,0L81.27,30.81a.22.22,0,0,1-.14,0L69.36,25.19a.22.22,0,0,0-.14,0,.19.19,0,0,0-.13,0L64.2,29.34l-7.05-2.17a.24.24,0,0,0-.12,0l-.11,0a.36.36,0,0,0-.07.1.25.25,0,0,0,0,.12l3,9.78-6.71-6.61a.15.15,0,0,0-.09-.06l-.1,0-.11,0a.27.27,0,0,0-.08.07l-4.3,4.28a.28.28,0,0,0,0,.15.26.26,0,0,0,0,.15L54,43.79l-9-4.07h-.16a.27.27,0,0,0-.12.09L41,44.64a.35.35,0,0,0-.06.14.28.28,0,0,0,0,.15L46,52.53l-8-3.77a.26.26,0,0,0-.28.09l-4.12,5.91a.24.24,0,0,0-.05.14.32.32,0,0,0,0,.14L38,62l-7.1-4a.22.22,0,0,0-.16,0,.21.21,0,0,0-.15.07L17,70.7l.8-.12,17.32-2.5a17,17,0,0,0,4.3-1.21l17.45-8.94a35,35,0,0,1,8.36-3.2l15.79-3,.22,0,0-.08-2.8-14.94,8.93,1.51L93,39.28,94.5,39l5-1a52.49,52.49,0,0,0-5.3-8.85ZM78.14,35.84l-1.93-.07-4.37-.17-3-.12-1.19,0a.61.61,0,0,1-.34-.1.72.72,0,0,1-.24-.25.77.77,0,0,1-.08-.34.63.63,0,0,1,.09-.33l.36-.62,1.49-2.64,0,0a1.1,1.1,0,0,1,.58-.48,1.08,1.08,0,0,1,.75,0s.53.25,1.37.69,1.88,1,3,1.77A22.15,22.15,0,0,0,78.34,35a.41.41,0,0,1,.21.2.45.45,0,0,1-.13.54.4.4,0,0,1-.28.08Z" transform="translate(0 -8.01)"/><path class="cls-4" d="M78.14,35.84l-1.93-.07-4.37-.17-3-.12-1.19,0a.61.61,0,0,1-.34-.1.72.72,0,0,1-.24-.25.77.77,0,0,1-.08-.34.63.63,0,0,1,.09-.33l.36-.62,1.49-2.64,0,0a1.1,1.1,0,0,1,.58-.48,1.08,1.08,0,0,1,.75,0s.53.25,1.37.69,1.88,1,3,1.77A22.15,22.15,0,0,0,78.34,35a.41.41,0,0,1,.21.2.45.45,0,0,1-.13.54.4.4,0,0,1-.28.08Z" transform="translate(0 -8.01)"/><path class="cls-4" d="M120,42.79,118.5,46l0,.08-.21.56-.1-3.55-1,.14-4.88,1.5-1.71,5-2.47-4.23L102,47l-.08.23-2,6.18-3.78-4.94-1.65.34L88.93,50,88,53.3,86.68,58,84,53.15l-.88-1.58a.39.39,0,0,0-.16-.15.34.34,0,0,0-.22,0l-1.51.28,0-.07L78.4,36.67l8.95,1.52L93,39.28,94.5,39l5-1a50.64,50.64,0,0,0-5.32-8.86L102.87,28a2.27,2.27,0,0,1,.78.05,2.09,2.09,0,0,1,.7.35l3.92,3,.07,0,9.26,3.28a1.28,1.28,0,0,1,.57.38,1.36,1.36,0,0,1,.31.61l1.46,6.6a.84.84,0,0,1,0,.52Z" transform="translate(0 -8.01)"/><path class="cls-4" d="M108.11,45.49l2.47,4.23L100,54.11,81,60.79v-9l2-.38L86.68,58l2.25-8,7.2-1.52,3.78,5L102,47Z" transform="translate(0 -8.01)"/><path class="cls-6" d="M72.26,63.23l-7.07,3h0Z" transform="translate(0 -8.01)"/><path class="cls-7" d="M118.26,43v3.62l-2.68,5.92a2,2,0,0,1-.94,1l-10.12,5L90,65.65l0,0,0,0v.06s0,0,0,0l2.39,3.32L95,72.85l4.57,6.42-.68.25-3.26-1.85-.75-3.29-1.78,1.85-6.89-4.08,0-.2.83-4.49L83.24,70l-.17.11-7.93-5.08,0-.15.54-1.75.56-1.8-4,1.86L66.1,66.58l-.26,7.73,1.8,2.28-8,5.5L48,78.49,31.29,84.2l-7.36,3.39-13,4.69c-.81-1-1.58-2.12-2.31-3.22h0L7.21,86.77a.75.75,0,0,1,0-.26c.53-1.8,2.66-7.6,9.7-15.8l.8-.11,17.31-2.5a17.31,17.31,0,0,0,4.3-1.21l17.45-9a35.21,35.21,0,0,1,8.37-3.2l15.78-3,.22,0,1.52-.29h0l.21,0,.1.18L84,53.18l2.73,4.88L88,53.31l.87-3.08a.33.33,0,0,1,.07-.13l.12-.08h0l5.38-1.13,1.36-.28a.43.43,0,0,1,.25,0,.48.48,0,0,1,.2.14h0l3.6,4.71,2-6.17a.62.62,0,0,1,.12-.19.56.56,0,0,1,.2-.11l5.62-1.42a.35.35,0,0,1,.37.16l2.34,4,1.4-4.91a.55.55,0,0,1,.12-.21.45.45,0,0,1,.21-.12L117,43.16a1,1,0,0,1,.24,0l.93-.11,0,0h0v0Z" transform="translate(0 -8.01)"/><path class="cls-7" d="M95.64,77.66h0l-.07,0Z" transform="translate(0 -8.01)"/><path class="cls-7" d="M98.91,79.52l-3.27-1.86,3.26,1.85Z" transform="translate(0 -8.01)"/><path class="cls-7" d="M96.64,68.65,95,72.85l-2.64-3.68Z" transform="translate(0 -8.01)"/><path class="cls-7" d="M65.19,66.18l-.48,4.11.47-4.11Z" transform="translate(0 -8.01)"/><path class="cls-4" d="M104.48,82.68l-1.8,6.68a.77.77,0,0,1-.28.43.87.87,0,0,1-.49.16h-5a4.08,4.08,0,0,1-1.69-.37l-27.59-13L64.9,75a1.19,1.19,0,0,1-.6-1.18l.81-7a1.16,1.16,0,0,1,.7-1l10.46-4.54-1.1,3.55a.29.29,0,0,0,0,.13.17.17,0,0,0,.08.09L82.9,70a.31.31,0,0,0,.34,0l3.86-2.57L86.27,72a.26.26,0,0,0,0,.17.3.3,0,0,0,.12.13l6.7,4,1.79-1.85.75,3.28v0l3.25,1.84h0l.67-.25,4.24-1.61Z" transform="translate(0 -8.01)"/><path class="cls-4" d="M17,70.7h0Z" transform="translate(0 -8.01)"/><path class="cls-4" d="M31.29,84.22Z" transform="translate(0 -8.01)"/><path class="cls-4" d="M65.19,66.18l-1,8.45h0l1-8.45Z" transform="translate(0 -8.01)"/><path class="cls-7" d="M78.14,35.84l-1.93-.07-4.37-.17-3-.12-1.19,0a.61.61,0,0,1-.34-.1.72.72,0,0,1-.24-.25.77.77,0,0,1-.08-.34.63.63,0,0,1,.09-.33l.36-.62,1.49-2.64,0,0a1.1,1.1,0,0,1,.58-.48,1.08,1.08,0,0,1,.75,0s.53.25,1.37.69,1.88,1,3,1.77A22.15,22.15,0,0,0,78.34,35a.41.41,0,0,1,.21.2.45.45,0,0,1-.13.54.4.4,0,0,1-.28.08Z" transform="translate(0 -8.01)"/><path class="cls-4" d="M68.08,110.11c-.49.16-1,.31-1.48.45l-.63.18a52.16,52.16,0,0,1-10.9,1.74H55c-.9,0-1.8.07-2.69.07A52.22,52.22,0,0,1,11,92.39l-.08-.1,13-4.7,7.35-3.38,15.16-6.94a3.45,3.45,0,0,1,2.9,0l10.34,4.82V95.36a6.57,6.57,0,0,0,1.17,3.74l3.35,4.8,4.22,5a.65.65,0,0,1,.17.34.81.81,0,0,1,0,.38.92.92,0,0,1-.19.33.7.7,0,0,1-.32.19Z" transform="translate(0 -8.01)"/><path class="cls-7" d="M65.19,66.18l-1,8.45h0l1-8.45Z" transform="translate(0 -8.01)"/><path class="cls-7" d="M17,70.7h0Z" transform="translate(0 -8.01)"/><path class="cls-7" d="M116.76,40.41l0,.06-.07,0h-.07l0-.06c-.91-3.32-1.62-4.15-5.46-5.42-.14,0-.12-.2,0-.19,1.61,0,4,.61,4.86,1.4C117,37.2,117,39.34,116.76,40.41Z" transform="translate(0 -8.01)"/></g></g><path class="cls-8" d="M239.72,60.78q0,18.81,12.72,18.82t12.71-18.82Q265.15,42,252.44,42T239.72,60.78Zm18.82,11.88a6.64,6.64,0,0,1-6.1,3.13,7.94,7.94,0,0,1-3.49-.72l10.2-25a18.6,18.6,0,0,1,1.37,7.72v5.94C260.52,67.57,259.86,70.55,258.54,72.66Zm-2.31-26L245.9,72a18.46,18.46,0,0,1-1.54-8.21V57.81q0-5.73,1.93-8.86a6.73,6.73,0,0,1,6.15-3.18A7.54,7.54,0,0,1,256.23,46.67Zm-98.07-4.08H148V79h10.16q6.63,0,9.91-4.59t3.33-13.6q0-9-3.33-13.6T158.16,42.59Zm6.31,29.55a7.61,7.61,0,0,1-6.52,3h-5.57V46.4H158a7.6,7.6,0,0,1,6.52,3q2.29,3,2.29,8.55V63.6Q166.76,69.12,164.47,72.14Zm14.21,3.34V79h22.51V75.48h-9.07V46.08h9.07V42.59H178.68v3.49h9.07v29.4Zm35.37-27.31h-.37V79h-4V42.59h6.2l12.41,30.49h.36V42.59h4V79h-6.2Z" transform="translate(0 -8.01)"/><path class="cls-4" d="M303.52,62.45H289.34V79H285V42.59h4.38v16h14.18v-16h4.37V79h-4.37Z" transform="translate(0 -8.01)"/><path class="cls-4" d="M334,74.59h-.21a7.68,7.68,0,0,1-7.66,5,9,9,0,0,1-6.83-2.71q-2.5-2.72-2.5-7.56V52.08H321V68.6a8.07,8.07,0,0,0,1.61,5.47,6,6,0,0,0,4.75,1.83,8.19,8.19,0,0,0,4.69-1.31,4.39,4.39,0,0,0,2-3.85V52.08h4.17V79H334Z" transform="translate(0 -8.01)"/><path class="cls-4" d="M348.25,40.4h4.17V56.46h.2a8.72,8.72,0,0,1,8.29-5,9,9,0,0,1,7.71,3.76q2.82,3.69,2.82,10.31c0,4.42-.94,7.87-2.82,10.38a9.09,9.09,0,0,1-7.71,3.7,8.72,8.72,0,0,1-8.29-5h-.2V79h-4.17ZM359.3,75.9a7.28,7.28,0,0,0,5.62-2.19,8.31,8.31,0,0,0,2-5.89V63.23a8.29,8.29,0,0,0-2-5.89,7.28,7.28,0,0,0-5.62-2.19,8,8,0,0,0-4.9,1.46,4.78,4.78,0,0,0-2,4.07v9.69a4.78,4.78,0,0,0,2,4.07A8,8,0,0,0,359.3,75.9Z" transform="translate(0 -8.01)"/></svg>